<?xml version="1.0" encoding="UTF-8" standalone="no"?>
<!-- Created with Inkscape (http://www.inkscape.org/) -->

<svg
   xmlns:dc="http://purl.org/dc/elements/1.1/"
   xmlns:cc="http://creativecommons.org/ns#"
   xmlns:rdf="http://www.w3.org/1999/02/22-rdf-syntax-ns#"
   xmlns:svg="http://www.w3.org/2000/svg"
   xmlns="http://www.w3.org/2000/svg"
   xmlns:sodipodi="http://sodipodi.sourceforge.net/DTD/sodipodi-0.dtd"
   xmlns:inkscape="http://www.inkscape.org/namespaces/inkscape"
   width="4714.3403"
   height="652.99536"
   id="svg3893"
   version="1.1"
   inkscape:version="0.47 r22583"
   sodipodi:docname="swirls.svg">
  <defs
     id="defs3895">
    <inkscape:perspective
       sodipodi:type="inkscape:persp3d"
       inkscape:vp_x="0 : 526.18109 : 1"
       inkscape:vp_y="0 : 1000 : 0"
       inkscape:vp_z="744.09448 : 526.18109 : 1"
       inkscape:persp3d-origin="372.04724 : 350.78739 : 1"
       id="perspective3901" />
    <inkscape:perspective
       id="perspective3885"
       inkscape:persp3d-origin="0.5 : 0.33333333 : 1"
       inkscape:vp_z="1 : 0.5 : 1"
       inkscape:vp_y="0 : 1000 : 0"
       inkscape:vp_x="0 : 0.5 : 1"
       sodipodi:type="inkscape:persp3d" />
  </defs>
  <sodipodi:namedview
     id="base"
     pagecolor="#ffffff"
     bordercolor="#666666"
     borderopacity="1.0"
     inkscape:pageopacity="0.0"
     inkscape:pageshadow="2"
     inkscape:zoom="0.35"
     inkscape:cx="2051.5859"
     inkscape:cy="404.34686"
     inkscape:document-units="px"
     inkscape:current-layer="layer1"
     showgrid="false"
     inkscape:window-width="1680"
     inkscape:window-height="999"
     inkscape:window-x="0"
     inkscape:window-y="24"
     inkscape:window-maximized="1" />
  <metadata
     id="metadata3898">
    <rdf:RDF>
      <cc:Work
         rdf:about="">
        <dc:format>image/svg+xml</dc:format>
        <dc:type
           rdf:resource="http://purl.org/dc/dcmitype/StillImage" />
        <dc:title />
      </cc:Work>
    </rdf:RDF>
  </metadata>
  <g
     inkscape:label="Layer 1"
     inkscape:groupmode="layer"
     id="layer1"
     transform="translate(1684.0606,-306.57084)">
    <path
       id="path9568"
       d="m -1684.0606,746.44955 c 0,0 15.6334,-7.07642 15.6334,-7.07642 0,0 15.9294,-6.75822 15.9294,-6.75822 0,0 16.1041,-6.52246 16.1041,-6.52246 0,0 16.2535,-6.31029 16.2535,-6.31029 0,0 16.3811,-6.12549 16.3811,-6.12549 0,0 16.4849,-5.96894 16.4849,-5.96894 0,0 16.5698,-5.84396 16.5698,-5.84396 0,0 16.7048,-5.65562 16.7048,-5.65562 0,0 16.7642,-5.52588 16.7642,-5.52588 0,0 16.8353,-5.43015 16.8353,-5.43015 0,0 16.9359,-5.2314 16.9359,-5.2314 0,0 16.963,-5.19871 16.963,-5.19871 0,0 17.0848,-4.96217 17.0848,-4.96217 0,0 17.0864,-4.96117 17.0864,-4.96117 0,0 17.2135,-4.72053 17.2135,-4.72053 0,0 17.2065,-4.71787 17.2065,-4.71787 0,0 17.3214,-4.50814 17.3214,-4.50814 0,0 17.3228,-4.46892 17.3228,-4.46892 0,0 17.4113,-4.32722 17.4113,-4.32722 0,0 17.4343,-4.21399 17.4343,-4.21399 0,0 17.4727,-4.18861 17.4727,-4.18861 0,0 17.5153,-4.02054 17.5153,-4.02054 0,0 17.5805,-3.90588 17.5805,-3.90588 0,0 17.6199,-3.81281 17.6199,-3.81281 0,0 17.6556,-3.72329 17.6556,-3.72329 0,0 17.6671,-3.6218 17.6671,-3.6218 0,0 17.7377,-3.50237 17.7377,-3.50237 0,0 17.7698,-3.42027 17.7698,-3.42027 0,0 17.7991,-3.34216 17.7991,-3.34216 0,0 17.805,-3.2112 17.805,-3.2112 0,0 17.8701,-3.1292 17.8701,-3.1292 0,0 17.8941,-3.05881 17.8941,-3.05881 0,0 17.8903,-2.93148 17.8903,-2.93148 0,0 17.9575,-2.85147 17.9575,-2.85147 0,0 17.9793,-2.78953 17.9793,-2.78953 0,0 17.9678,-2.64696 17.9678,-2.64696 0,0 18.0346,-2.58828 18.0346,-2.58828 0,0 18.0038,-2.50303 18.0038,-2.50303 0,0 18.0865,-2.38993 18.0865,-2.38993 0,0 18.1026,-2.34065 18.1026,-2.34065 0,0 18.0697,-2.21197 18.0697,-2.21197 0,0 18.148,-2.1494 18.148,-2.1494 0,0 18.1011,-2.06508 18.1011,-2.06508 0,0 18.1886,-1.96132 18.1886,-1.96132 0,0 18.1294,-1.91719 18.1294,-1.91719 0,0 18.2263,-1.77682 18.2263,-1.77682 0,0 18.2365,-1.74564 18.2365,-1.74564 0,0 18.1796,-1.61864 18.1796,-1.61864 0,0 18.269,-1.56936 18.269,-1.56936 0,0 18.2028,-1.46825 18.2028,-1.46825 0,0 18.2968,-1.39688 18.2968,-1.39688 0,0 18.2233,-1.31706 18.2233,-1.31706 0,0 18.3226,-1.22854 18.3226,-1.22854 0,0 18.2412,-1.16515 18.2412,-1.16515 0,0 18.3453,-1.0644 18.3453,-1.0644 0,0 18.2572,-1.01259 18.2572,-1.01259 0,0 18.3659,-0.90466 18.3659,-0.90466 0,0 18.2701,-0.8594 18.2701,-0.8594 0,0 18.3829,-0.74935 18.3829,-0.74935 0,0 18.2808,-0.70567 18.2808,-0.70567 0,0 18.3975,-0.59869 18.3975,-0.59869 0,0 18.2909,-0.55151 18.2909,-0.55151 0,0 18.4096,-0.45273 18.4096,-0.45273 0,0 18.2989,-0.39691 18.2989,-0.39691 0,0 18.4188,-0.31163 18.4188,-0.31163 0,0 18.3035,-0.2419 18.3035,-0.2419 0,0 18.4271,-0.17551 18.4271,-0.17551 0,0 18.3059,-0.0865 18.3059,-0.0865 0,0 18.4337,-0.0444 18.4337,-0.0444 0,0 18.3061,0.069 18.3061,0.069 0,0 18.4387,0.0814 18.4387,0.0814 0,0 18.304,0.22483 18.304,0.22483 0,0 18.3038,0.22484 18.3038,0.22484 0,0 18.4382,0.35807 18.4382,0.35807 0,0 18.2993,0.38079 18.2993,0.38079 0,0 18.4388,0.47355 18.4388,0.47355 0,0 18.2926,0.5368 18.2926,0.5368 0,0 18.4248,0.57915 18.4248,0.57915 0,0 18.2842,0.67826 18.2842,0.67826 0,0 18.2843,0.67824 18.2843,0.67824 0,0 18.4039,0.81251 18.4039,0.81251 0,0 18.2751,0.8091 18.2751,0.8091 0,0 18.4035,0.92132 18.4035,0.92132 0,0 18.2634,0.94421 18.2634,0.94421 0,0 18.4009,1.04313 18.4009,1.04313 0,0 18.25,1.08348 18.25,1.08348 0,0 18.3959,1.17844 18.3959,1.17844 0,0 18.2333,1.22669 18.2333,1.22669 0,0 18.3866,1.32731 18.3866,1.32731 0,0 18.2149,1.37372 18.2149,1.37372 0,0 18.3732,1.48991 18.3732,1.48991 0,0 18.1939,1.52422 18.1939,1.52422 0,0 18.3549,1.66598 18.3549,1.66598 0,0 18.357,1.69881 18.357,1.69881 0,0 18.1438,1.83408 18.1438,1.83408 0,0 18.3297,1.89796 18.3297,1.89796 0,0 18.1145,1.99245 18.1145,1.99245 0,0 18.2955,2.10867 18.2955,2.10867 0,0 18.0823,2.15236 18.0823,2.15236 0,0 18.2541,2.32941 18.2541,2.32941 0,0 18.2428,2.3975 18.2428,2.3975 0,0 18.0101,2.47374 18.0101,2.47374 0,0 18.189,2.63278 18.189,2.63278 0,0 18.1686,2.71356 18.1686,2.71356 0,0 17.92842,2.79154 17.92842,2.79154 0,0 18.10244,2.95567 18.10244,2.95567 0,0 18.0756,3.0446 18.0756,3.0446 0,0 18.04405,3.13734 18.04405,3.13734 0,0 17.7947,3.24363 17.7947,3.24363 0,0 17.96338,3.37285 17.96338,3.37285 0,0 17.92407,3.46348 17.92407,3.46348 0,0 17.965,3.57261 17.965,3.57261 0,0 17.63964,3.6946 17.63964,3.6946 0,0 17.64052,3.69481 17.64052,3.69481 0,0 17.90896,3.85768 17.90896,3.85768 0,0 17.56264,3.89878 17.56264,3.89878 0,0 17.56337,3.8989 17.56337,3.8989 0,0 17.73689,4.10629 17.73689,4.10629 0,0 17.50235,4.0529 17.50235,4.0529 0,0 17.6304,4.14452 17.6304,4.14452 0,0 17.4623,4.14995 17.4623,4.14995 0,0 17.49663,4.16269 17.49663,4.16269 0,0 17.45218,4.17222 17.45218,4.17222 0,0 17.45306,4.17244 17.45306,4.17244 0,0 17.45218,4.17222 17.45218,4.17222 0,0 17.45291,4.17233 17.45291,4.17233 0,0 17.29977,4.08901 17.29977,4.08901 0,0 17.49516,4.07051 17.49516,4.07051 0,0 17.1899,4.31703 17.1899,4.31703 0,0 17.00728,4.11793 17.00728,4.11793 0,0 17.25107,4.1731 17.25107,4.1731 0,0 16.96841,4.00426 16.96841,4.00426 0,0 17.33292,3.97911 17.33292,3.97911 0,0 17.33205,3.97899 17.33205,3.97899 0,0 17.11524,3.75697 17.11524,3.75697 0,0 17.22495,3.68451 17.22495,3.68451 0,0 17.24742,3.59721 17.24742,3.59721 0,0 17.49808,3.54314 17.49808,3.54314 0,0 17.32016,3.36975 17.32016,3.36975 0,0 17.34364,3.28156 17.34364,3.28156 0,0 17.36959,3.19846 17.36959,3.19846 0,0 17.64375,3.10097 17.64375,3.10097 0,0 17.44015,2.9648 17.44015,2.9648 0,0 17.46421,2.8898 17.46421,2.8898 0,0 17.73425,2.78809 17.73425,2.78809 0,0 17.52876,2.66245 17.52876,2.66245 0,0 17.77841,2.62966 17.77841,2.62966 0,0 17.58947,2.44131 17.58947,2.44131 0,0 17.60753,2.38669 17.60753,2.38669 0,0 17.85468,2.31201 17.85468,2.31201 0,0 17.66026,2.18261 17.66026,2.18261 0,0 17.8899,2.15502 17.8899,2.15502 0,0 17.7075,1.98939 17.7075,1.98939 0,0 17.7211,1.96114 17.7211,1.96114 0,0 17.9493,1.8469 17.9493,1.8469 0,0 17.7611,1.78985 17.7611,1.78985 0,0 17.9753,1.69701 17.9753,1.69701 0,0 17.7974,1.63175 17.7974,1.63175 0,0 17.9976,1.55032 17.9976,1.55032 0,0 17.8281,1.4865 17.8281,1.4865 0,0 18.0199,1.40751 18.0199,1.40751 0,0 17.8557,1.35454 17.8557,1.35454 0,0 18.0372,1.26835 18.0372,1.26835 0,0 17.8805,1.23545 17.8805,1.23545 0,0 18.0528,1.13329 18.0528,1.13329 0,0 18.0529,1.1333 18.0529,1.1333 0,0 17.9167,0.99835 17.9167,0.99835 0,0 18.0665,1.00245 18.0665,1.00245 0,0 17.9334,0.90816 17.9334,0.90816 0,0 18.078,0.87593 18.078,0.87593 0,0 17.9492,0.82961 17.9492,0.82961 0,0 18.0886,0.75372 18.0886,0.75372 0,0 18.0877,0.75361 18.0877,0.75361 0,0 17.9708,0.64404 17.9708,0.64404 0,0 18.0965,0.63572 18.0965,0.63572 0,0 17.9836,0.59097 17.9836,0.59097 0,0 18.102,0.52205 18.102,0.52205 0,0 18.1029,0.52217 18.1029,0.52217 0,0 17.999,0.43774 17.999,0.43774 0,0 18.107,0.4127 18.107,0.4127 0,0 18.0103,0.40694 18.0103,0.40694 0,0 18.1107,0.30745 18.1107,0.30745 0,0 18.1106,0.30745 18.1106,0.30745 0,0 18.0005,0.27687 18.0005,0.27687 0,0 18.1136,0.18247 18.1136,0.18247 0,0 18.1143,0.18248 18.1143,0.18248 0,0 18.1135,0.18258 18.1135,0.18258 0,0 18.1127,0.18248 18.1127,0.18248 0,0 18.1142,0.18247 18.1142,0.18247 0,0 17.9911,0.0776 17.9911,0.0776 0,0 18.1152,0.0288 18.1152,0.0288 0,0 18.1154,0.0288 18.1154,0.0288 0,0 18.1152,0.0288 18.1152,0.0288 0,0 18.1152,0.0288 18.1152,0.0288 0,0 17.9983,-0.0366 17.9983,-0.0366 0,0 18.1143,-0.13184 18.1143,-0.13184 0,0 18.1145,-0.13184 18.1145,-0.13184 0,0 18.1145,-0.13174 18.1145,-0.13174 0,0 18.1142,-0.13184 18.1142,-0.13184 0,0 18.0035,-0.20242 18.0035,-0.20242 0,0 18.1111,-0.29958 18.1111,-0.29958 0,0 18.1106,-0.29947 18.1106,-0.29947 0,0 18.1109,-0.29958 18.1109,-0.29958 0,0 18.1111,-0.29959 18.1111,-0.29959 0,0 18.004,-0.42344 18.004,-0.42344 0,0 18.1043,-0.47497 18.1043,-0.47497 0,0 18.1044,-0.47486 18.1044,-0.47486 0,0 18.1043,-0.47485 18.1043,-0.47485 0,0 18.0065,-0.52261 18.0065,-0.52261 0,0 18.0942,-0.65833 18.0942,-0.65833 0,0 18.0942,-0.65822 18.0942,-0.65822 0,0 18.0945,-0.65821 18.0945,-0.65821 0,0 18.0052,-0.67218 18.0052,-0.67218 0,0 18.0804,-0.85011 18.0804,-0.85011 0,0 18.0803,-0.85011 18.0803,-0.85011 0,0 18.0801,-0.85011 18.0801,-0.85011 0,0 17.9974,-0.87737 17.9974,-0.87737 0,0 18.0617,-1.05097 18.0617,-1.05097 0,0 18.0616,-1.05098 18.0616,-1.05098 0,0 18.0617,-1.05086 18.0617,-1.05086 0,0 17.9785,-1.14382 17.9785,-1.14382 0,0 18.0381,-1.26126 18.0381,-1.26126 0,0 18.038,-1.26126 18.038,-1.26126 0,0 17.9736,-1.25739 17.9736,-1.25739 0,0 18.0086,-1.48151 18.0086,-1.48151 0,0 18.0087,-1.48152 18.0087,-1.48152 0,0 18.0085,-1.48151 18.0085,-1.48151 0,0 17.9245,-1.6548 17.9245,-1.6548 0,0 17.9725,-1.71229 17.9725,-1.71229 0,0 17.9728,-1.71241 17.9728,-1.71241 0,0 17.8915,-1.89067 17.8915,-1.89067 0,0 17.9294,-1.95427 17.9294,-1.95427 0,0 17.9293,-1.95438 17.9293,-1.95438 0,0 17.8399,-2.19136 17.8399,-2.19136 0,0 17.8777,-2.20798 17.8777,-2.20798 0,0 17.8379,-2.2749 17.8379,-2.2749 0,0 17.8147,-2.42214 17.8147,-2.42214 0,0 17.7995,-2.54313 17.7995,-2.54313 0,0 17.754,-2.67331 17.754,-2.67331 0,0 17.7222,-2.79706 17.7222,-2.79706 0,0 17.6868,-2.93013 17.6868,-2.93013 0,0 17.6465,-3.07271 17.6465,-3.07271 0,0 17.6011,-3.2255 17.6011,-3.2255 0,0 17.5492,-3.38836 17.5492,-3.38836 0,0 17.4913,-3.5622 17.4913,-3.5622 0,0 17.4233,-3.76827 17.4233,-3.76827 0,0 17.3394,-3.9801 17.3394,-3.9801 0,0 17.252,-4.19682 17.252,-4.19682 0,0 17.1515,-4.46316 17.1515,-4.46316 0,0 17.0127,-4.73604 17.0127,-4.73604 0,0 16.8638,-5.07739 16.8638,-5.07739 0,0 16.6713,-5.44478 16.6713,-5.44478 0,0 16.4205,-5.87864 16.4205,-5.87864 0,0 16.0854,-6.48457 16.0854,-6.48457 0,0 15.6158,-7.17535 15.6158,-7.17535 0,0 14.7058,-8.47573 14.7058,-8.47573 0,0 -14.6542,8.78461 -14.6542,8.78461 0,0 -15.6281,7.48835 -15.6281,7.48835 0,0 -16.1426,6.79656 -16.1426,6.79656 0,0 -16.4818,6.18864 -16.4818,6.18864 0,0 -16.7565,5.75245 -16.7565,5.75245 0,0 -16.9711,5.3824 -16.9711,5.3824 0,0 -17.0995,5.04172 -17.0995,5.04172 0,0 -17.2941,4.76263 -17.2941,4.76263 0,0 -17.3637,4.49839 -17.3637,4.49839 0,0 -17.4607,4.28013 -17.4607,4.28013 0,0 -17.6089,4.05821 -17.6089,4.05821 0,0 -17.6335,3.85757 -17.6335,3.85757 0,0 -17.6996,3.68196 -17.6996,3.68196 0,0 -17.7586,3.517 -17.7586,3.517 0,0 -17.8116,3.36254 -17.8116,3.36254 0,0 -17.8588,3.21786 -17.8588,3.21786 0,0 -17.9011,3.08291 -17.9011,3.08291 0,0 -17.9387,2.95716 -17.9387,2.95716 0,0 -17.9726,2.84016 -17.9726,2.84016 0,0 -17.9517,2.7051 -17.9517,2.7051 0,0 -18.0789,2.54435 -18.0789,2.54435 0,0 -18.0025,2.50457 -18.0025,2.50457 0,0 -18.1338,2.4463 -18.1338,2.4463 0,0 -18.0614,2.24919 -18.0614,2.24919 0,0 -18.0616,2.24909 -18.0616,2.24909 0,0 -18.2042,2.13807 -18.2042,2.13807 0,0 -18.1118,2.00545 -18.1118,2.00545 0,0 -18.1119,2.00534 -18.1119,2.00534 0,0 -18.2541,1.89488 -18.2541,1.89488 0,0 -18.1543,1.77268 -18.1543,1.77268 0,0 -18.1544,1.77279 -18.1544,1.77279 0,0 -18.2887,1.71064 -18.2887,1.71064 0,0 -18.1901,1.55064 -18.1901,1.55064 0,0 -18.1899,1.55065 -18.1899,1.55065 0,0 -18.1901,1.55065 -18.1901,1.55065 0,0 -18.3424,1.36829 -18.3424,1.36829 0,0 -18.2194,1.33848 -18.2194,1.33848 0,0 -18.2198,1.33849 -18.2198,1.33849 0,0 -18.3544,1.29616 -18.3544,1.29616 0,0 -18.2435,1.13595 -18.2435,1.13595 0,0 -18.2436,1.13595 -18.2436,1.13595 0,0 -18.2437,1.13585 -18.2437,1.13585 0,0 -18.3827,1.07413 -18.3827,1.07413 0,0 -18.2628,0.94229 -18.2628,0.94229 0,0 -18.2629,0.94229 -18.2629,0.94229 0,0 -18.2631,0.94229 -18.2631,0.94229 0,0 -18.4016,0.90849 -18.4016,0.90849 0,0 -18.2779,0.75727 -18.2779,0.75727 0,0 -18.2781,0.75715 -18.2781,0.75715 0,0 -18.2781,0.75727 -18.2781,0.75727 0,0 -18.2781,0.75715 -18.2781,0.75715 0,0 -18.426,0.61712 -18.426,0.61712 0,0 -18.2893,0.58022 -18.2893,0.58022 0,0 -18.2895,0.58011 -18.2895,0.58011 0,0 -18.2893,0.58022 -18.2893,0.58022 0,0 -18.4328,0.55695 -18.4328,0.55695 0,0 -18.2976,0.41071 -18.2976,0.41071 0,0 -18.2973,0.41081 -18.2973,0.41081 0,0 -18.2975,0.41071 -18.2975,0.41071 0,0 -18.2974,0.41071 -18.2974,0.41071 0,0 -18.4443,0.37647 -18.4443,0.37647 0,0 -18.3025,0.24851 -18.3025,0.24851 0,0 -18.3025,0.24851 -18.3025,0.24851 0,0 -18.3027,0.24861 -18.3027,0.24861 0,0 -18.3026,0.24851 -18.3026,0.24851 0,0 -18.4514,0.24729 -18.4514,0.24729 0,0 -18.3049,0.0931 -18.3049,0.0931 0,0 -18.3055,0.0931 -18.3055,0.0931 0,0 -18.3048,0.0931 -18.3048,0.0931 0,0 -18.3056,0.0931 -18.3056,0.0931 0,0 -18.3045,0.0931 -18.3045,0.0931 0,0 -18.4352,0.0277 -18.4352,0.0277 0,0 -18.305,-0.0332 -18.305,-0.0332 0,0 -18.3059,-0.0332 -18.3059,-0.0332 0,0 -18.4176,-0.11279 -18.4176,-0.11279 0,0 -18.3042,-0.13948 -18.3042,-0.13948 0,0 -18.4253,-0.1478 -18.4253,-0.1478 0,0 -18.302,-0.25006 -18.302,-0.25006 0,0 -18.303,-0.25006 -18.303,-0.25006 0,0 -18.4291,-0.30678 -18.4291,-0.30678 0,0 -18.2996,-0.36495 -18.2996,-0.36495 0,0 -18.2996,-0.36506 -18.2996,-0.36506 0,0 -18.4309,-0.48428 -18.4309,-0.48428 0,0 -18.2947,-0.48427 -18.2947,-0.48427 0,0 -18.4359,-0.55762 -18.4359,-0.55762 0,0 -18.2883,-0.6078 -18.2883,-0.6078 0,0 -18.4396,-0.64249 -18.4396,-0.64249 0,0 -18.2801,-0.73588 -18.2801,-0.73588 0,0 -18.28,-0.736 -18.28,-0.736 0,0 -18.4321,-0.87171 -18.4321,-0.87171 0,0 -18.27,-0.86839 -18.27,-0.86839 0,0 -18.4309,-0.98572 -18.4309,-0.98572 0,0 -18.2575,-1.005 -18.2575,-1.005 0,0 -18.4279,-1.11291 -18.4279,-1.11291 0,0 -18.2421,-1.14581 -18.2421,-1.14581 0,0 -18.4209,-1.25362 -18.4209,-1.25362 0,0 -18.225,-1.29051 -18.225,-1.29051 0,0 -18.4099,-1.40817 -18.4099,-1.40817 0,0 -18.2056,-1.43897 -18.2056,-1.43897 0,0 -18.3942,-1.57624 -18.3942,-1.57624 0,0 -18.1844,-1.59087 -18.1844,-1.59087 0,0 -18.3724,-1.75772 -18.3724,-1.75772 0,0 -18.374,-1.79472 -18.374,-1.79472 0,0 -18.13091,-1.90297 -18.13091,-1.90297 0,0 -18.34243,-1.99881 -18.34243,-1.99881 0,0 -18.10038,-2.06229 -18.10038,-2.06229 0,0 -18.3056,-2.21418 -18.3056,-2.21418 0,0 -18.29651,-2.27767 -18.29651,-2.27767 0,0 -18.03085,-2.38414 -18.03085,-2.38414 0,0 -18.2462,-2.50989 -18.2462,-2.50989 0,0 -18.22829,-2.58778 -18.22829,-2.58778 0,0 -17.95224,-2.70489 -17.95224,-2.70489 0,0 -18.16493,-2.83019 -18.16493,-2.83019 0,0 -18.1397,-2.91838 -18.1397,-2.91838 0,0 -17.8648,-3.01698 -17.8648,-3.01698 0,0 -18.06357,-3.16146 -18.06357,-3.16146 0,0 -18.02969,-3.25375 -18.02969,-3.25375 0,0 -17.77239,-3.31126 -17.77239,-3.31126 0,0 -17.94549,-3.48586 -17.94549,-3.48586 0,0 -17.90368,-3.57349 -17.90368,-3.57349 0,0 -17.94138,-3.69825 -17.94138,-3.69825 0,0 -17.61807,-3.75453 -17.61807,-3.75453 0,0 -17.61722,-3.75431 -17.61722,-3.75431 0,0 -17.87918,-3.98598 -17.87918,-3.98598 0,0 -17.54136,-3.95185 -17.54136,-3.95185 0,0 -17.76462,-4.0591 -17.76462,-4.0591 0,0 -17.48255,-4.09799 -17.48255,-4.09799 0,0 -17.48342,-4.0981 -17.48342,-4.0981 0,0 -17.33233,-4.42394 -17.33233,-4.42394 0,0 -17.15808,-4.3897 -17.15808,-4.3897 0,0 -17.15646,-4.38926 -17.15646,-4.38926 0,0 -17.15719,-4.38948 -17.15719,-4.38948 0,0 -17.12272,-4.3783 -17.12272,-4.3783 0,0 -17.16717,-4.36743 -17.16717,-4.36743 0,0 -17.16716,-4.36744 -17.16716,-4.36744 0,0 -17.04087,-4.26373 -17.04087,-4.26373 0,0 -17.20912,-4.27193 -17.20912,-4.27193 0,0 -16.98396,-4.17843 -16.98396,-4.17843 0,0 -17.27366,-4.1207 -17.27366,-4.1207 0,0 -17.27279,-4.12047 -17.27279,-4.12047 0,0 -17.02047,-3.901 -17.02047,-3.901 0,0 -17.35523,-3.91984 -17.35523,-3.91984 0,0 -17.09572,-3.83186 -17.09572,-3.83186 0,0 -17.42446,-3.74345 -17.42446,-3.74345 0,0 -17.26618,-3.59256 -17.26618,-3.59256 0,0 -17.2895,-3.50403 -17.2895,-3.50403 0,0 -17.31371,-3.41794 -17.31371,-3.41794 0,0 -17.56939,-3.33219 -17.56939,-3.33219 0,0 -17.38528,-3.18628 -17.38528,-3.18628 0,0 -17.40879,-3.10351 -17.40879,-3.10351 0,0 -17.6647,-3.03062 -17.6647,-3.03062 0,0 -17.4778,-2.87074 -17.4778,-2.87074 0,0 -17.5002,-2.79751 -17.5002,-2.79751 0,0 -17.7539,-2.7174 -17.7539,-2.7174 0,0 -17.5612,-2.57249 -17.5612,-2.57249 0,0 -17.5817,-2.51288 -17.5817,-2.51288 0,0 -17.8337,-2.40057 -17.8337,-2.40057 0,0 -17.6367,-2.30294 -17.6367,-2.30294 0,0 -17.8688,-2.24273 -17.8688,-2.24273 0,0 -17.6854,-2.10274 -17.6854,-2.10274 0,0 -17.9037,-2.08666 -17.9037,-2.08666 0,0 -17.7297,-1.91394 -17.7297,-1.91394 0,0 -17.7413,-1.88906 -17.7413,-1.88906 0,0 -17.9606,-1.78076 -17.9606,-1.78076 0,0 -17.7787,-1.72255 -17.7787,-1.72255 0,0 -17.9854,-1.63217 -17.9854,-1.63217 0,0 -17.8124,-1.56908 -17.8124,-1.56908 0,0 -18.0074,-1.48699 -18.0074,-1.48699 0,0 -17.8397,-1.42854 -17.8397,-1.42854 0,0 -18.0278,-1.34553 -18.0278,-1.34553 0,0 -17.8661,-1.30127 -17.8661,-1.30127 0,0 -18.0441,-1.20789 -18.0441,-1.20789 0,0 -17.8896,-1.18679 -17.8896,-1.18679 0,0 -18.058,-1.07434 -18.058,-1.07434 0,0 -18.0597,-1.07442 -18.0597,-1.07442 0,0 -17.9216,-0.95533 -17.9216,-0.95533 0,0 -18.0715,-0.94507 -18.0715,-0.94507 0,0 -17.9224,-0.86054 -17.9224,-0.86054 0,0 -18.0825,-0.80524 -18.0825,-0.80524 0,0 -17.9176,-0.76414 -17.9176,-0.76414 0,0 -18.0951,-0.65103 -18.0951,-0.65103 0,0 -18.0943,-0.651 -18.0943,-0.651 0,0 -17.9374,-0.50228 -17.9374,-0.50228 0,0 -18.1036,-0.4968 -18.1036,-0.4968 0,0 -17.9474,-0.38924 -17.9474,-0.38924 0,0 -18.109,-0.34269 -18.109,-0.34269 0,0 -17.9564,-0.27074 -17.9564,-0.27074 0,0 -18.1121,-0.18875 -18.1121,-0.18875 0,0 -17.9624,-0.14688 -17.9624,-0.14688 0,0 -18.1155,-0.035 -18.1155,-0.035 0,0 -17.9676,-0.0177 -17.9676,-0.0177 0,0 -18.1142,0.11838 -18.1142,0.11838 0,0 -17.9713,0.11659 -17.9713,0.11659 0,0 -18.1111,0.27147 -18.1111,0.27147 0,0 -18.1121,0.27149 -18.1121,0.27149 0,0 -17.9679,0.40868 -17.9679,0.40868 0,0 -18.106,0.42415 -18.106,0.42415 0,0 -17.9651,0.5526 -17.9651,0.5526 0,0 -18.0988,0.57641 -18.0988,0.57641 0,0 -17.9601,0.70132 -17.9601,0.70132 0,0 -18.0899,0.72817 -18.0899,0.72817 0,0 -17.9525,0.85472 -17.9525,0.85472 0,0 -18.0765,0.87926 -18.0765,0.87926 0,0 -17.9429,1.01269 -17.9429,1.01269 0,0 -17.9449,1.02509 -17.9449,1.02509 0,0 -18.0473,1.17977 -18.0473,1.17977 0,0 -17.9303,1.19237 -17.9303,1.19237 0,0 -18.0291,1.32895 -18.0291,1.32895 0,0 -17.9125,1.36382 -17.9125,1.36382 0,0 -18.0096,1.47745 -18.0096,1.47745 0,0 -17.8915,1.53926 -17.8915,1.53926 0,0 -17.9865,1.625 -17.9865,1.625 0,0 -17.8664,1.71851 -17.8664,1.71851 0,0 -17.9622,1.77176 -17.9622,1.77176 0,0 -17.8387,1.90152 -17.8387,1.90152 0,0 -17.8332,1.9429 -17.8332,1.9429 0,0 -17.9067,2.06245 -17.9067,2.06245 0,0 -17.7993,2.1337 -17.7993,2.1337 0,0 -17.8776,2.20649 -17.8776,2.20649 0,0 -17.7593,2.32746 -17.7593,2.32746 0,0 -17.7506,2.38258 -17.7506,2.38258 0,0 -17.8111,2.49116 -17.8111,2.49116 0,0 -17.7037,2.58324 -17.7037,2.58324 0,0 -17.6913,2.64716 -17.6913,2.64716 0,0 -17.7391,2.77169 -17.7391,2.77169 0,0 -17.6361,2.8539 -17.6361,2.8539 0,0 -17.6202,2.92625 -17.6202,2.92625 0,0 -17.6597,3.04757 -17.6597,3.04757 0,0 -17.5588,3.13896 -17.5588,3.13896 0,0 -17.5355,3.21874 -17.5355,3.21874 0,0 -17.5731,3.31824 -17.5731,3.31824 0,0 -17.4668,3.43677 -17.4668,3.43677 0,0 -17.4379,3.52364 -17.4379,3.52364 0,0 -17.408,3.61494 -17.408,3.61494 0,0 -17.3476,3.70766 -17.3476,3.70766 0,0 -17.3592,3.90787 -17.3592,3.90787 0,0 -17.36,3.90798 -17.36,3.90798 0,0 -17.1951,4.03982 -17.1951,4.03982 0,0 -17.2562,4.1617 -17.2562,4.1617 0,0 -17.1296,4.21542 -17.1296,4.21542 0,0 -17.1481,4.40987 -17.1481,4.40987 0,0 -17.0465,4.42328 -17.0465,4.42328 0,0 -17.0351,4.65228 -17.0351,4.65228 0,0 -16.9441,4.6617 -16.9441,4.6617 0,0 -16.9187,4.88893 -16.9187,4.88893 0,0 -16.8172,4.92727 -16.8172,4.92727 0,0 -16.7992,5.12016 -16.7992,5.12016 0,0 -16.6696,5.21943 -16.6696,5.21943 0,0 -16.6761,5.34517 -16.6761,5.34517 0,0 -16.4962,5.53497 -16.4962,5.53497 0,0 -16.4283,5.65938 -16.4283,5.65938 0,0 -16.3388,5.81516 -16.3388,5.81516 0,0 -16.2254,5.9993 -16.2254,5.9993 0,0 -16.0893,6.21091 -16.0893,6.21091 0,0 -15.9288,6.447 -15.9288,6.447 0,0 -15.645,6.76499 -15.645,6.76499 0,0 0,0 0,0"
       style="fill:#99ccff;fill-opacity:1;stroke:none" />
    <path
       style="fill:#99ccff;fill-opacity:1;stroke:none"
       d="m 2603.5163,760.63444 c 0,0 -15.0875,-4.53208 -15.0875,-4.53208 0,0 -15.0873,-4.53209 -15.0873,-4.53209 0,0 -15.0866,-4.53184 -15.0866,-4.53184 0,0 -15.0874,-4.53209 -15.0874,-4.53209 0,0 -15.0875,-4.53209 -15.0875,-4.53209 0,0 -15.1484,-4.53132 -15.1484,-4.53132 0,0 -15.1475,-4.47214 -15.1475,-4.47214 0,0 -15.1476,-4.47213 -15.1476,-4.47213 0,0 -15.1476,-4.47214 -15.1476,-4.47214 0,0 -15.1476,-4.47214 -15.1476,-4.47214 0,0 -15.1468,-4.4719 -15.1468,-4.4719 0,0 -15.2327,-4.43807 -15.2327,-4.43807 0,0 -15.2145,-4.40439 -15.2145,-4.40439 0,0 -15.2142,-4.40441 -15.2142,-4.40441 0,0 -15.2142,-4.4044 -15.2142,-4.4044 0,0 -15.2145,-4.4044 -15.2145,-4.4044 0,0 -15.2662,-4.3915 -15.2662,-4.3915 0,0 -15.2878,-4.32822 -15.2878,-4.32822 0,0 -15.2878,-4.32822 -15.2878,-4.32822 0,0 -15.2879,-4.32822 -15.2879,-4.32822 0,0 -15.2878,-4.32821 -15.2878,-4.32821 0,0 -15.3143,-4.32842 -15.3143,-4.32842 0,0 -15.3682,-4.24287 -15.3682,-4.24287 0,0 -15.3683,-4.24284 -15.3683,-4.24284 0,0 -15.3675,-4.24264 -15.3675,-4.24264 0,0 -15.3682,-4.24285 -15.3682,-4.24285 0,0 -15.3773,-4.24368 -15.3773,-4.24368 0,0 -15.4556,-4.14754 -15.4556,-4.14754 0,0 -15.4558,-4.14754 -15.4558,-4.14754 0,0 -15.4556,-4.14754 -15.4556,-4.14754 0,0 -15.4557,-4.14754 -15.4557,-4.14754 0,0 -15.4583,-4.13638 -15.4583,-4.13638 0,0 -15.525,-4.06895 -15.525,-4.06895 0,0 -15.5259,-4.06917 -15.5259,-4.06917 0,0 -15.5531,-4.02585 -15.5531,-4.02585 0,0 -15.5748,-4.01329 -15.5748,-4.01329 0,0 -15.5808,-3.9871 -15.5808,-3.9871 0,0 -15.6253,-3.95444 -15.6253,-3.95444 0,0 -15.6096,-3.94486 -15.6096,-3.94486 0,0 -15.6778,-3.89253 -15.6778,-3.89253 0,0 -15.6778,-3.89254 -15.6778,-3.89254 0,0 -15.6961,-3.83433 -15.6961,-3.83433 0,0 -15.7317,-3.82738 -15.7317,-3.82738 0,0 -15.7319,-3.78154 -15.7319,-3.78154 0,0 -15.7871,-3.759 -15.7871,-3.759 0,0 -15.7701,-3.72438 -15.7701,-3.72438 0,0 -15.8433,-3.68698 -15.8433,-3.68698 0,0 -15.8105,-3.66252 -15.8105,-3.66252 0,0 -15.9024,-3.61187 -15.9024,-3.61187 0,0 -15.8536,-3.59552 -15.8536,-3.59552 0,0 -15.9623,-3.53281 -15.9623,-3.53281 0,0 -15.9622,-3.53291 -15.9622,-3.53291 0,0 -15.9592,-3.44027 -15.9592,-3.44027 0,0 -16.0231,-3.4501 -16.0231,-3.4501 0,0 -16.0089,-3.35843 -16.0089,-3.35843 0,0 -16.085,-3.36356 -16.085,-3.36356 0,0 -16.0601,-3.27018 -16.0601,-3.27018 0,0 -16.1479,-3.27294 -16.1479,-3.27294 0,0 -16.1136,-3.17529 -16.1136,-3.17529 0,0 -16.2115,-3.17818 -16.2115,-3.17818 0,0 -16.1681,-3.07315 -16.1681,-3.07315 0,0 -16.2757,-3.07945 -16.2757,-3.07945 0,0 -16.2261,-2.96406 -16.2261,-2.96406 0,0 -16.3402,-2.97634 -16.3402,-2.97634 0,0 -16.2846,-2.84684 -16.2846,-2.84684 0,0 -16.2799,-2.83359 -16.2799,-2.83359 0,0 -16.4685,-2.75699 -16.4685,-2.75699 0,0 -16.3407,-2.70441 -16.3407,-2.70441 0,0 -16.5334,-2.64084 -16.5334,-2.64084 0,0 -16.4021,-2.56679 -16.4021,-2.56679 0,0 -16.5967,-2.52 -16.5967,-2.52 0,0 -16.4634,-2.42021 -16.4634,-2.42021 0,0 -16.6591,-2.39466 -16.6591,-2.39466 0,0 -16.5241,-2.26452 -16.5241,-2.26452 0,0 -16.5231,-2.23365 -16.5231,-2.23365 0,0 -16.7797,-2.13065 -16.7797,-2.13065 0,0 -16.5834,-2.06397 -16.5834,-2.06397 0,0 -16.8371,-1.99173 -16.8371,-1.99173 0,0 -16.6403,-1.8848 -16.6403,-1.8848 0,0 -16.892,-1.84856 -16.892,-1.84856 0,0 -16.6932,-1.69599 -16.6932,-1.69599 0,0 -16.6945,-1.64984 -16.6945,-1.64984 0,0 -16.9932,-1.54939 -16.9932,-1.54939 0,0 -16.7425,-1.44693 -16.7425,-1.44693 0,0 -17.0385,-1.39361 -17.0385,-1.39361 0,0 -16.785,-1.23516 -16.785,-1.23516 0,0 -16.7836,-1.1782 -16.7836,-1.1782 0,0 -17.1171,-1.07051 -17.1171,-1.07051 0,0 -16.8158,-0.95329 -16.8158,-0.95329 0,0 -17.1496,-0.90372 -17.1496,-0.90372 0,0 -16.8418,-0.7209 -16.8418,-0.7209 0,0 -16.836,-0.65412 -16.836,-0.65412 0,0 -17.1986,-0.56084 -17.1986,-0.56084 0,0 -16.8484,-0.41103 -16.8484,-0.41103 0,0 -16.8392,-0.33989 -16.8392,-0.33989 0,0 -17.2253,-0.20782 -17.2253,-0.20782 0,0 -16.8378,-0.0887 -16.8378,-0.0887 0,0 -16.8268,-0.0139 -16.8268,-0.0139 0,0 -17.2272,0.15258 -17.2272,0.15258 0,0 -16.8085,0.24371 -16.8085,0.24371 0,0 -17.21858,0.33454 -17.21858,0.33454 0,0 -16.77898,0.50336 -16.77898,0.50336 0,0 -16.75857,0.58126 -16.75857,0.58126 0,0 -17.18153,0.69985 -17.18153,0.69985 0,0 -16.71333,0.84195 -16.71333,0.84195 0,0 -16.69072,0.91975 -16.69072,0.91975 0,0 -17.1184,1.0643 -17.1184,1.0643 0,0 -16.62854,1.17842 -16.62854,1.17842 0,0 -16.60306,1.25482 -16.60306,1.25482 0,0 -17.02992,1.42439 -17.02992,1.42439 0,0 -16.52542,1.50847 -16.52542,1.50847 0,0 -16.4987,1.5824 -16.4987,1.5824 0,0 -16.91797,1.77666 -16.91797,1.77666 0,0 -16.40906,1.82837 -16.40906,1.82837 0,0 -16.38044,1.89869 -16.38044,1.89869 0,0 -16.78478,2.11835 -16.78478,2.11835 0,0 -16.27943,2.13439 -16.27943,2.13439 0,0 -16.71123,2.2845 -16.71123,2.2845 0,0 -16.1738,2.36272 -16.1738,2.36272 0,0 -16.1434,2.42426 -16.1434,2.42426 0,0 -16.55215,2.60558 -16.55215,2.60558 0,0 -16.03093,2.63967 -16.03093,2.63967 0,0 -16.00231,2.69565 -16.00231,2.69565 0,0 -16.38002,2.91053 -16.38002,2.91053 0,0 -15.97948,2.90005 -15.97948,2.90005 0,0 -16.30774,3.02869 -16.30774,3.02869 0,0 -16.30774,3.02881 -16.30774,3.02881 0,0 -16.02051,2.99995 -16.02051,2.99995 0,0 -16.83927,2.82922 -16.83927,2.82922 0,0 -16.84002,2.82932 -16.84002,2.82932 0,0 -16.5876,2.79982 -16.5876,2.79982 0,0 -16.79276,2.9101 -16.79276,2.9101 0,0 -16.79266,2.9101 -16.79266,2.9101 0,0 -16.57436,2.88808 -16.57436,2.88808 0,0 -16.74984,2.98254 -16.74984,2.98254 0,0 -16.74973,2.98255 -16.74973,2.98255 0,0 -16.56131,2.97239 -16.56131,2.97239 0,0 -16.71249,3.04557 -16.71249,3.04557 0,0 -16.71165,3.04548 -16.71165,3.04548 0,0 -16.55341,3.04889 -16.55341,3.04889 0,0 -16.67935,3.09761 -16.67935,3.09761 0,0 -16.68008,3.09772 -16.68008,3.09772 0,0 -16.51112,3.1178 -16.51112,3.1178 0,0 -16.64526,3.15147 -16.64526,3.15147 0,0 -16.64515,3.15147 -16.64515,3.15147 0,0 -16.64611,3.15157 -16.64611,3.15157 0,0 -16.64526,3.15146 -16.64526,3.15146 0,0 -16.57277,3.15746 -16.57277,3.15746 0,0 -16.62853,3.17753 -16.62853,3.17753 0,0 -16.62842,3.17764 -16.62842,3.17764 0,0 -16.62854,3.17765 -16.62854,3.17765 0,0 -16.62937,3.17774 -16.62937,3.17774 0,0 -16.72785,3.16535 -16.72785,3.16535 0,0 -16.65241,3.14019 -16.65241,3.14019 0,0 -16.652424,3.14018 -16.652424,3.14018 0,0 -16.65326,3.14035 -16.65326,3.14035 0,0 -16.80002,3.16479 -16.80002,3.16479 0,0 -16.69829,3.06712 -16.69829,3.06712 0,0 -16.69829,3.06712 -16.69829,3.06712 0,0 -16.8755703,3.0367 -16.8755703,3.0367 0,0 -16.74374,2.99266 -16.74374,2.99266 0,0 -16.9467597,2.9737 -16.9467597,2.9737 0,0 -16.8,2.89769 -16.8,2.89769 0,0 -17.0229,2.89405 -17.0229,2.89405 0,0 -16.8659,2.78151 -16.8659,2.78151 0,0 -17.1063,2.79598 -17.1063,2.79598 0,0 -16.940396,2.64366 -16.940396,2.64366 0,0 -17.1929,2.67714 -17.1929,2.67714 0,0 -17.0217,2.48396 -17.0217,2.48396 0,0 -17.0224,2.4841 -17.0224,2.4841 0,0 -17.2785,2.38977 -17.2785,2.38977 0,0 -17.2621,2.28569 -17.2621,2.28569 0,0 -17.3075,2.18909 -17.3075,2.18909 0,0 -17.3531,2.08744 -17.3531,2.08744 0,0 -17.3964,1.98049 -17.3964,1.98049 0,0 -17.4401,1.86898 -17.4401,1.86898 0,0 -17.4804,1.75268 -17.4804,1.75268 0,0 -17.5196,1.63221 -17.5196,1.63221 0,0 -17.5564,1.50783 -17.5564,1.50783 0,0 -17.5914,1.38002 -17.5914,1.38002 0,0 -17.6213,1.24891 -17.6213,1.24891 0,0 -17.649,1.11522 -17.649,1.11522 0,0 -17.6729,0.97934 -17.6729,0.97934 0,0 -17.6939,0.84184 -17.6939,0.84184 0,0 -17.7089,0.70304 -17.7089,0.70304 0,0 -17.721,0.56362 -17.721,0.56362 0,0 -17.729,0.42404 -17.729,0.42404 0,0 -17.7336,0.28484 -17.7336,0.28484 0,0 -17.7322,0.14643 -17.7322,0.14643 0,0 -17.622,0.003 -17.622,0.003 0,0 -17.7269,-0.14132 -17.7269,-0.14132 0,0 -17.7137,-0.27628 -17.7137,-0.27628 0,0 -17.6978,-0.40875 -17.6978,-0.40875 0,0 -17.6798,-0.53834 -17.6798,-0.53834 0,0 -17.6569,-0.66477 -17.6569,-0.66477 0,0 -17.6325,-0.78779 -17.6325,-0.78779 0,0 -17.6067,-0.90718 -17.6067,-0.90718 0,0 -17.5201,-1.03112 -17.5201,-1.03112 0,0 -17.5474,-1.16349 -17.5474,-1.16349 0,0 -17.514,-1.27255 -17.514,-1.27255 0,0 -17.4858,-1.39419 -17.4858,-1.39419 0,0 -17.4456,-1.52988 -17.4456,-1.52988 0,0 -17.3508,-1.67715 -17.3508,-1.67715 0,0 -17.3225,-1.87189 -17.3225,-1.87189 0,0 -17.2587,-2.01302 -17.2587,-2.01302 0,0 -17.1917,-2.15093 -17.1917,-2.15093 0,0 -17.1236,-2.28592 -17.1236,-2.28592 0,0 -17.0539,-2.41797 -17.0539,-2.41797 0,0 -16.9775,-2.5739 -16.9775,-2.5739 0,0 -16.8975,-2.70863 -16.8975,-2.70863 0,0 -16.8233,-2.82944 -16.8233,-2.82944 0,0 -16.7467,-2.94739 -16.7467,-2.94739 0,0 -16.6697,-3.06291 -16.6697,-3.06291 0,0 -16.6226,-3.18648 -16.6226,-3.18648 0,0 -16.5006,-3.31597 -16.5006,-3.31597 0,0 -16.4203,-3.4214 -16.4203,-3.4214 0,0 -16.3407,-3.52482 -16.3407,-3.52482 0,0 -16.2604,-3.62608 -16.2604,-3.62608 0,0 -16.18059,-3.72545 -16.18059,-3.72545 0,0 -16.1521,-3.83779 -16.1521,-3.83779 0,0 -16.004,-3.9391 -16.004,-3.9391 0,0 -15.9225,-4.0302 -15.9225,-4.0302 0,0 -15.8422,-4.11973 -15.8422,-4.11973 0,0 -15.7597,-4.20719 -15.7597,-4.20719 0,0 -15.6789,-4.29345 -15.6789,-4.29345 0,0 -15.5961,-4.37754 -15.5961,-4.37754 0,0 -15.5141,-4.46056 -15.5141,-4.46056 0,0 -15.4939,-4.57264 -15.4939,-4.57264 0,0 -15.3411,-4.63291 -15.3411,-4.63291 0,0 -15.259,-4.70951 -15.259,-4.70951 0,0 -15.1773,-4.78506 -15.1773,-4.78506 0,0 -15.0957,-4.85931 -15.0957,-4.85931 0,0 -15.0147,-4.93272 -15.0147,-4.93272 0,0 -14.8767,-5.00783 -14.8767,-5.00783 0,0 -14.9176,-5.10945 -14.9176,-5.10945 0,0 -14.7039,-5.1057 -14.7039,-5.1057 0,0 -14.7503,-5.25251 -14.7503,-5.25251 0,0 -14.5406,-5.2399 -14.5406,-5.2399 0,0 -14.5869,-5.38619 -14.5869,-5.38619 0,0 -14.3718,-5.37464 -14.3718,-5.37464 0,0 -14.4277,-5.51108 -14.4277,-5.51108 0,0 -14.1972,-5.5098 -14.1972,-5.5098 0,0 -14.2749,-5.62883 -14.2749,-5.62883 0,0 -14.0169,-5.64517 -14.0169,-5.64517 0,0 -14.1254,-5.73888 -14.1254,-5.73888 0,0 -13.8313,-5.78056 -13.8313,-5.78056 0,0 -13.7802,-5.81838 -13.7802,-5.81838 0,0 -13.8421,-5.94008 -13.8421,-5.94008 0,0 -13.5787,-5.95866 -13.5787,-5.95866 0,0 -13.503,-6.01156 -13.503,-6.01156 0,0 -13.4145,-6.07353 -13.4145,-6.07353 0,0 -13.312,-6.14255 -13.312,-6.14255 0,0 -13.141,-6.19255 -13.141,-6.19255 0,0 -13.1608,-6.38274 -13.1608,-6.38274 0,0 -12.8396,-6.31779 -12.8396,-6.31779 0,0 -12.6767,-6.45059 -12.6767,-6.45059 0,0 12.9879,6.25901 12.9879,6.25901 0,0 13.1381,6.12001 13.1381,6.12001 0,0 13.4656,6.18818 13.4656,6.18818 0,0 13.4248,5.98826 13.4248,5.98826 0,0 13.5922,5.93687 13.5922,5.93687 0,0 13.6859,5.8641 13.6859,5.8641 0,0 13.7645,5.79819 13.7645,5.79819 0,0 13.8293,5.74102 13.8293,5.74102 0,0 14.125,5.73579 14.125,5.73579 0,0 14.0144,5.59442 14.0144,5.59442 0,0 14.0525,5.552 14.0525,5.552 0,0 14.3981,5.53054 14.3981,5.53054 0,0 14.2184,5.40957 14.2184,5.40957 0,0 14.5422,5.41845 14.5422,5.41845 0,0 14.3769,5.26704 14.3769,5.26704 0,0 14.6892,5.29857 14.6892,5.29857 0,0 14.5276,5.12419 14.5276,5.12419 0,0 14.8421,5.17141 14.8421,5.17141 0,0 14.6699,4.98144 14.6699,4.98144 0,0 14.9988,5.03551 14.9988,5.03551 0,0 14.8039,4.83912 14.8039,4.83912 0,0 15.159,4.88997 15.159,4.88997 0,0 14.9894,4.74702 14.9894,4.74702 0,0 15.1566,4.68195 15.1566,4.68195 0,0 15.2264,4.60598 15.2264,4.60598 0,0 15.2962,4.52883 15.2962,4.52883 0,0 15.3655,4.45041 15.3655,4.45041 0,0 15.4348,4.37092 15.4348,4.37092 0,0 15.7088,4.34516 15.7088,4.34516 0,0 15.5895,4.19441 15.5895,4.19441 0,0 15.6569,4.10871 15.6569,4.10871 0,0 15.7245,4.02162 15.7245,4.02162 0,0 15.7893,3.93263 15.7893,3.93263 0,0 15.8551,3.84245 15.8551,3.84245 0,0 15.918,3.75014 15.918,3.75014 0,0 15.9808,3.65649 15.9808,3.65649 0,0 16.3308,3.60115 16.3308,3.60115 0,0 16.13209,3.43901 16.13209,3.43901 0,0 16.1917,3.33726 16.1917,3.33726 0,0 16.2502,3.23376 16.2502,3.23376 0,0 16.3077,3.1283 16.3077,3.1283 0,0 16.3641,3.02101 16.3641,3.02101 0,0 16.7691,2.94341 16.7691,2.94341 0,0 16.5018,2.76512 16.5018,2.76512 0,0 16.5525,2.64833 16.5525,2.64833 0,0 16.6022,2.52942 16.6022,2.52942 0,0 16.6482,2.40801 16.6482,2.40801 0,0 17.0937,2.32603 17.0937,2.32603 0,0 16.7669,2.1161 16.7669,2.1161 0,0 16.8057,1.9844 16.8057,1.9844 0,0 16.8419,1.85029 16.8419,1.85029 0,0 16.8759,1.71387 16.8759,1.71387 0,0 16.9051,1.57486 16.9051,1.57486 0,0 17.4231,1.42435 17.4231,1.42435 0,0 16.9832,1.23493 16.9832,1.23493 0,0 17.0835,1.1088 17.0835,1.1088 0,0 17.1816,0.99553 17.1816,0.99553 0,0 17.1943,0.88846 17.1943,0.88846 0,0 17.5606,0.77623 17.5606,0.77623 0,0 17.2263,0.6342 17.2263,0.6342 0,0 17.232,0.51751 17.232,0.51751 0,0 17.237,0.39755 17.237,0.39755 0,0 17.2411,0.27448 17.2411,0.27448 0,0 17.2413,0.14851 17.2413,0.14851 0,0 17.2402,0.02 17.2402,0.02 0,0 17.2376,-0.11088 17.2376,-0.11088 0,0 17.6117,-0.25854 17.6117,-0.25854 0,0 17.221,-0.39416 17.221,-0.39416 0,0 17.209,-0.52802 17.209,-0.52802 0,0 17.1924,-0.66258 17.1924,-0.66258 0,0 17.1743,-0.79743 17.1743,-0.79743 0,0 17.1536,-0.93213 17.1536,-0.93213 0,0 17.1314,-1.06626 17.1314,-1.06626 0,0 17.1051,-1.19919 17.1051,-1.19919 0,0 17.0775,-1.33066 17.0775,-1.33066 0,0 17.0481,-1.46012 17.0481,-1.46012 0,0 17.0179,-1.58726 17.0179,-1.58726 0,0 16.9846,-1.71144 16.9846,-1.71144 0,0 16.9511,-1.83248 16.9511,-1.83248 0,0 16.9166,-1.94999 16.9166,-1.94999 0,0 16.8829,-2.06372 16.8829,-2.06372 0,0 16.847,-2.17314 16.847,-2.17314 0,0 16.8133,-2.27838 16.8133,-2.27838 0,0 16.7781,-2.37883 16.7781,-2.37883 0,0 16.7448,-2.47464 16.7448,-2.47464 0,0 16.5953,-2.5501 16.5953,-2.5501 0,0 16.8912,-2.72974 16.8912,-2.72974 0,0 16.8906,-2.72962 16.8906,-2.72962 0,0 16.3704,-2.80981 16.3704,-2.80981 0,0 16.8014,-2.88804 16.8014,-2.88804 0,0 16.357496,-2.93482 16.357496,-2.93482 0,0 16.7202,-3.02472 16.7202,-3.02472 0,0 16.3521,-3.04203 16.3521,-3.04203 0,0 16.6486,-3.13988 16.6486,-3.13988 0,0 16.3571,-3.13331 16.3571,-3.13331 0,0 16.5878497,-3.23403 16.5878497,-3.23403 0,0 16.36877,-3.20991 16.36877,-3.20991 0,0 16.5386703,-3.30767 16.5386703,-3.30767 0,0 16.53879,-3.30778 16.53879,-3.30778 0,0 16.28565,-3.33471 16.28565,-3.33471 0,0 16.49007,-3.38033 16.49007,-3.38033 0,0 16.48934,-3.38012 16.48934,-3.38012 0,0 16.489334,-3.38002 16.489334,-3.38002 0,0 16.37582,-3.36708 16.37582,-3.36708 0,0 16.4644,-3.4173 16.4644,-3.4173 0,0 16.46356,-3.41719 16.46356,-3.41719 0,0 16.46355,-3.41709 16.46355,-3.41709 0,0 16.46367,-3.4172 16.46367,-3.4172 0,0 16.54616,-3.42499 16.54616,-3.42499 0,0 16.48165,-3.39123 16.48165,-3.39123 0,0 16.48239,-3.39144 16.48239,-3.39144 0,0 16.48155,-3.39134 16.48155,-3.39134 0,0 16.48166,-3.39123 16.48166,-3.39123 0,0 16.64578,-3.41751 16.64578,-3.41751 0,0 16.51911,-3.33813 16.51911,-3.33813 0,0 16.51827,-3.33792 16.51827,-3.33792 0,0 16.68893,-3.34763 16.68893,-3.34763 0,0 16.5532,-3.2862 16.5532,-3.2862 0,0 16.55394,-3.28641 16.55394,-3.28641 0,0 16.7691,-3.28396 16.7691,-3.28396 0,0 16.59444,-3.22402 16.59444,-3.22402 0,0 16.59433,-3.22391 16.59433,-3.22391 0,0 16.8518,-3.21119 16.8518,-3.21119 0,0 16.64073,-3.15221 16.64073,-3.15221 0,0 16.64074,-3.15221 16.64074,-3.15221 0,0 16.93133,-3.13277 16.93133,-3.13277 0,0 16.69208,-3.07218 16.69208,-3.07218 0,0 16.69124,-3.07197 16.69124,-3.07197 0,0 16.71438,-2.85432 16.71438,-2.85432 0,0 16.45147,-2.78519 16.45147,-2.78519 0,0 16.45135,-2.7852 16.45135,-2.7852 0,0 16.86126,-2.78241 16.86126,-2.78241 0,0 16.51774,-2.66595 16.51774,-2.66595 0,0 17.06316,-2.60067 17.06316,-2.60067 0,0 17.10209,-2.53688 17.10209,-2.53688 0,0 16.67451,-2.35855 16.67451,-2.35855 0,0 17.2153,-2.31196 17.2153,-2.31196 0,0 17.25202,-2.24155 17.25202,-2.24155 0,0 16.81749,-2.03523 16.81749,-2.03523 0,0 17.35376,-2.00265 17.35376,-2.00265 0,0 16.88272,-1.86812 16.88272,-1.86812 0,0 17.44834,-1.75592 17.44834,-1.75592 0,0 17.47676,-1.67537 17.47676,-1.67537 0,0 16.99866,-1.52461 16.99866,-1.52461 0,0 17.55482,-1.41797 17.55482,-1.41797 0,0 17.57638,-1.33314 17.57638,-1.33314 0,0 17.09294,-1.17072 17.09294,-1.17072 0,0 17.63741,-1.06784 17.63741,-1.06784 0,0 17.65267,-0.98032 17.65267,-0.98032 0,0 17.16332,-0.8097 17.16332,-0.8097 0,0 17.69308,-0.7101 17.69308,-0.7101 0,0 17.70063,-0.62142 17.70063,-0.62142 0,0 17.20826,-0.44449 17.20826,-0.44449 0,0 17.71936,-0.34982 17.71936,-0.34982 0,0 17.72011,-0.26167 17.72011,-0.26167 0,0 17.22702,-0.0791 17.22702,-0.0791 0,0 17.7189,0.0106 17.7189,0.0106 0,0 17.2265,0.10365 17.2265,0.10365 0,0 17.7044,0.27481 17.7044,0.27481 0,0 17.6901,0.35837 17.6901,0.35837 0,0 17.2066,0.4635 17.2066,0.4635 0,0 17.6556,0.6179 17.6556,0.6179 0,0 17.6365,0.69674 17.6365,0.69674 0,0 17.1622,0.81601 17.1622,0.81601 0,0 17.586,0.94645 17.586,0.94645 0,0 17.5611,1.01932 17.5611,1.01932 0,0 17.096,1.15791 17.096,1.15791 0,0 17.4955,1.25684 17.4955,1.25684 0,0 17.0553,1.32406 17.0553,1.32406 0,0 17.4232,1.48603 17.4232,1.48603 0,0 17.3925,1.54704 17.3925,1.54704 0,0 16.9606,1.64578 16.9606,1.64578 0,0 17.3099,1.76148 17.3099,1.76148 0,0 16.9074,1.80081 16.9074,1.80081 0,0 17.2219,1.96631 17.2219,1.96631 0,0 17.1885,2.01439 17.1885,2.01439 0,0 16.7913,2.09849 16.7913,2.09849 0,0 17.0966,2.20362 17.0966,2.20362 0,0 16.7292,2.24081 16.7292,2.24081 0,0 17.0014,2.3828 17.0014,2.3828 0,0 16.665,2.37864 16.665,2.37864 0,0 16.9037,2.55183 16.9037,2.55183 0,0 16.8748,2.5824 16.8748,2.5824 0,0 16.5313,2.64084 16.5313,2.64084 0,0 16.7784,2.73636 16.7784,2.73636 0,0 16.4628,2.76521 16.4628,2.76521 0,0 16.6828,2.88093 16.6828,2.88093 0,0 16.3933,2.88499 16.3933,2.88499 0,0 16.5883,3.0162 16.5883,3.0162 0,0 16.3226,3.00016 16.3226,3.00016 0,0 16.4957,3.14249 16.4957,3.14249 0,0 16.4752,3.15382 16.4752,3.15382 0,0 16.1833,3.21749 16.1833,3.21749 0,0 16.3872,3.26761 16.3872,3.26761 0,0 16.1137,3.31954 16.1137,3.31954 0,0 16.3011,3.37328 16.3011,3.37328 0,0 16.0446,3.41741 16.0446,3.41741 0,0 16.2197,3.47189 16.2197,3.47189 0,0 15.9763,3.51101 15.9763,3.51101 0,0 16.1408,3.56305 16.1408,3.56305 0,0 15.909,3.60075 15.909,3.60075 0,0 16.0652,3.64756 16.0652,3.64756 0,0 15.8427,3.68634 15.8427,3.68634 0,0 15.9926,3.72556 15.9926,3.72556 0,0 15.7779,3.76808 15.7779,3.76808 0,0 15.7776,3.76819 15.7776,3.76819 0,0 15.8613,3.87611 15.8613,3.87611 0,0 15.7141,3.84618 15.7141,3.84618 0,0 15.798,3.93925 15.798,3.93925 0,0 15.6511,3.92045 15.6511,3.92045 0,0 15.7384,3.99738 15.7384,3.99738 0,0 15.5914,3.9916 15.5914,3.9916 0,0 15.6822,4.0509 15.6822,4.0509 0,0 15.5326,4.05914 15.5326,4.05914 0,0 15.6294,4.10016 15.6294,4.10016 0,0 15.4755,4.12346 15.4755,4.12346 0,0 15.4753,4.12337 15.4753,4.12337 0,0 15.5241,4.20636 15.5241,4.20636 0,0 15.42,4.18452 15.42,4.18452 0,0 15.4804,4.24525 15.4804,4.24525 0,0 15.3665,4.24257 15.3665,4.24257 0,0 15.439,4.28076 15.439,4.28076 0,0 15.3148,4.29771 15.3148,4.29771 0,0 15.3138,4.29748 15.3138,4.29748 0,0 15.3678,4.39836 15.3678,4.39836 0,0 15.2406,4.37498 15.2406,4.37498 0,0 15.2406,4.375 15.2406,4.375 0,0 15.2408,4.37498 15.2408,4.37498 0,0 15.2406,4.375 15.2406,4.375 0,0 15.2852,4.50608 15.2852,4.50608 0,0 15.1485,4.46896 15.1485,4.46896 0,0 15.1478,4.46875 15.1478,4.46875 0,0 15.1485,4.46895 15.1485,4.46895 0,0 15.1484,4.46896 15.1484,4.46896 0,0 15.1835,4.58047 15.1835,4.58047 0,0 15.0639,4.55309 15.0639,4.55309 0,0 15.0639,4.55309 15.0639,4.55309 0,0 15.0638,4.55309 15.0638,4.55309 0,0 15.0638,4.55309 15.0638,4.55309 0,0 15.1027,4.63442 15.1027,4.63442 0,0 14.9867,4.62815 14.9867,4.62815 0,0 14.9865,4.62815 14.9865,4.62815 0,0 14.9865,4.62814 14.9865,4.62814 0,0 14.9865,4.62815 14.9865,4.62815 0,0 15.0422,4.67307 15.0422,4.67307 0,0 14.9156,4.69463 14.9156,4.69463 0,0 14.9164,4.69484 14.9164,4.69484 0,0 14.9165,4.69486 14.9165,4.69486 0,0 14.9164,4.69485 14.9164,4.69485 0,0 14.9165,4.69486 14.9165,4.69486 0,0 14.9321,4.75866 14.9321,4.75866 0,0 14.8534,4.75389 14.8534,4.75389 0,0 14.8533,4.75387 14.8533,4.75387 0,0 14.8526,4.75365 14.8526,4.75365 0,0 14.8533,4.75388 14.8533,4.75388 0,0 14.8533,4.75388 14.8533,4.75388 0,0 -9e-4,9.2e-4 -9e-4,9.2e-4"
       id="path2765" />
    <path
       id="path6970"
       d="m 3030.2798,959.56413 c 0,0 -7.7631,-15.32699 -7.7631,-15.32699 0,0 -8.2145,-15.09488 -8.2145,-15.09488 0,0 -8.5572,-14.96253 -8.5572,-14.96253 0,0 -8.8741,-14.83544 -8.8741,-14.83544 0,0 -9.1614,-14.71378 -9.1614,-14.71378 0,0 -9.4169,-14.60093 -9.4169,-14.60093 0,0 -9.6373,-14.49934 -9.6373,-14.49934 0,0 -9.8789,-14.31971 -9.8789,-14.31971 0,0 -10.1779,-14.2396 -10.1779,-14.2396 0,0 -10.3105,-14.15454 -10.3105,-14.15454 0,0 -10.5963,-13.98996 -10.5963,-13.98996 0,0 -10.8183,-13.87139 -10.8183,-13.87139 0,0 -11.0403,-13.74832 -11.0403,-13.74832 0,0 -11.2629,-13.62127 -11.2629,-13.62127 0,0 -11.4851,-13.48959 -11.4851,-13.48959 0,0 -11.7085,-13.35501 -11.7085,-13.35501 0,0 -11.9316,-13.21559 -11.9316,-13.21559 0,0 -12.1547,-13.07188 -12.1547,-13.07188 0,0 -12.377,-12.92314 -12.377,-12.92314 0,0 -12.6002,-12.7713 -12.6002,-12.7713 0,0 -12.8223,-12.6143 -12.8223,-12.6143 0,0 -13.0439,-12.4527 -13.0439,-12.4527 0,0 -13.264,-12.286 -13.264,-12.286 0,0 -13.4843,-12.1159 -13.4843,-12.1159 0,0 -13.7031,-11.9407 -13.7031,-11.9407 0,0 -13.9203,-11.7608 -13.9203,-11.7608 0,0 -14.1355,-11.576 -14.1355,-11.576 0,0 -14.3501,-11.3877 -14.3501,-11.3877 0,0 -14.5621,-11.1946 -14.5621,-11.1946 0,0 -14.7721,-10.9972 -14.7721,-10.9972 0,0 -15.0203,-10.7704 -15.0203,-10.7704 0,0 -15.2341,-10.5439 -15.2341,-10.5439 0,0 -15.4395,-10.3274 -15.4395,-10.3274 0,0 -15.6415,-10.1068 -15.6415,-10.1068 0,0 -15.8401,-9.8826 -15.8401,-9.8826 0,0 -16.0343,-9.6544 -16.0343,-9.6544 0,0 -16.2916,-9.3992 -16.2916,-9.3992 0,0 -16.4765,-9.1147 -16.4765,-9.1147 0,0 -16.6605,-8.869 -16.6605,-8.869 0,0 -16.8388,-8.6204 -16.8388,-8.6204 0,0 -17.0188,-8.387 -17.0188,-8.387 0,0 -17.245,-8.0805 -17.245,-8.0805 0,0 -17.3985,-7.7873 -17.3985,-7.7873 0,0 -17.5966,-7.5239 -17.5966,-7.5239 0,0 -17.7438,-7.2057 -17.7438,-7.2057 0,0 -17.9304,-6.9458 -17.9304,-6.9458 0,0 -18.0637,-6.6077 -18.0637,-6.6077 0,0 -18.2399,-6.3469 -18.2399,-6.3469 0,0 -18.3557,-5.9967 -18.3557,-5.9967 0,0 -18.5255,-5.7313 -18.5255,-5.7313 0,0 -18.6177,-5.3768 -18.6177,-5.3768 0,0 -18.7816,-5.1007 -18.7816,-5.1007 0,0 -18.8481,-4.7524 -18.8481,-4.7524 0,0 -19.0097,-4.46 -19.0097,-4.46 0,0 -19.046,-4.1286 -19.046,-4.1286 0,0 -19.2043,-3.8118 -19.2043,-3.8118 0,0 -19.2836,-3.519 -19.2836,-3.519 0,0 -19.2967,-3.1528 -19.2967,-3.1528 0,0 -19.4403,-2.8894 -19.4403,-2.8894 0,0 -19.4706,-2.787 -19.4706,-2.787 0,0 -19.5544,-2.6501 -19.5544,-2.6501 0,0 -19.5175,-2.5349 -19.5175,-2.5349 0,0 -19.5322,-2.4367 -19.5322,-2.4367 0,0 -19.6137,-2.3241 -19.6137,-2.3241 0,0 -19.5736,-2.1663 -19.5736,-2.1663 0,0 -19.5881,-2.0559 -19.5881,-2.0559 0,0 -19.6015,-1.9406 -19.6015,-1.9406 0,0 -19.6911,-1.8136 -19.6911,-1.8136 0,0 -19.6362,-1.6447 -19.6362,-1.6447 0,0 -19.6482,-1.5169 -19.6482,-1.5169 0,0 -19.6589,-1.3843 -19.6589,-1.3843 0,0 -19.6689,-1.2465 -19.6689,-1.2465 0,0 -19.7664,-1.0955 -19.7664,-1.0955 0,0 -19.6915,-0.9184 -19.6915,-0.9184 0,0 -19.6973,-0.7685 -19.6973,-0.7685 0,0 -19.7019,-0.614 -19.7019,-0.614 0,0 -19.7039,-0.4546 -19.7039,-0.4546 0,0 -19.7062,-0.2907 -19.7062,-0.2907 0,0 -19.706,-0.1222 -19.706,-0.1222 0,0 -19.7036,0.051 -19.7036,0.051 0,0 -19.8078,0.2407 -19.8078,0.2407 0,0 -19.6944,0.424 -19.6944,0.424 0,0 -19.6848,0.6055 -19.6848,0.6055 0,0 -19.6728,0.7906 -19.6728,0.7906 0,0 -19.6574,0.9788 -19.6574,0.9788 0,0 -19.6412,1.1697 -19.6412,1.1697 0,0 -19.6212,1.3631 -19.6212,1.3631 0,0 -19.5986,1.5586 -19.5986,1.5586 0,0 -19.5723,1.7556 -19.5723,1.7556 0,0 -19.5447,1.9538 -19.5447,1.9538 0,0 -19.5138,2.1527 -19.5138,2.1527 0,0 -19.4799,2.3518 -19.4799,2.3518 0,0 -19.4427,2.5503 -19.4427,2.5503 0,0 -19.275,2.7452 -19.275,2.7452 0,0 -19.3601,2.9598 -19.3601,2.9598 0,0 -19.3163,3.1552 -19.3163,3.1552 0,0 -19.2708,3.3476 -19.2708,3.3476 0,0 -19.2225,3.5363 -19.2225,3.5363 0,0 -19.1025,3.76 -19.1025,3.76 0,0 -19.2563,3.8806 -19.2563,3.8806 0,0 -18.9409,4.1139 -18.9409,4.1139 0,0 -18.9238,4.202 -18.9238,4.202 0,0 -19.0728,4.4664 -19.0728,4.4664 0,0 -18.8182,4.5646 -18.8182,4.5646 0,0 -18.9838,4.7233 -18.9838,4.7233 0,0 -18.7175,4.8907 -18.7175,4.8907 0,0 -18.7077,4.9726 -18.7077,4.9726 0,0 -18.8215,5.1556 -18.8215,5.1556 0,0 -18.6268,5.2383 -18.6268,5.2383 0,0 -18.6226,5.3111 -18.6226,5.3111 0,0 -18.6938,5.469 -18.6938,5.469 0,0 -18.5304,5.5129 -18.5304,5.5129 0,0 -18.6311,5.6156 -18.6311,5.6156 0,0 -18.6304,5.6154 -18.6304,5.6154 0,0 -18.5388,5.6305 -18.5388,5.6305 0,0 -18.5948,5.6991 -18.5948,5.6991 0,0 -18.5948,5.6992 -18.5948,5.6992 0,0 -18.6548,5.6938 -18.6548,5.6938 0,0 -18.6189,5.644 -18.6189,5.644 0,0 -18.61894,5.644 -18.61894,5.644 0,0 -18.528,5.6457 -18.528,5.6457 0,0 -18.2383,5.7887 -18.2383,5.7887 0,0 -18.132,6.0998 -18.132,6.0998 0,0 -18.0386,6.3563 -18.0386,6.3563 0,0 -17.7931,6.5138 -17.7931,6.5138 0,0 -17.8392,6.7361 -17.8392,6.7361 0,0 -17.9426,7.0031 -17.9426,7.0031 0,0 -17.7162,6.9231 -17.7162,6.9231 0,0 -19.0826,7.4074 -19.0826,7.4074 0,0 -18.9186,7.342 -18.9186,7.342 0,0 -18.9857,7.5768 -18.9857,7.5768 0,0 -18.9865,7.5772 -18.9865,7.5772 0,0 -18.7438,7.657 -18.7438,7.657 0,0 -18.889,7.7448 -18.889,7.7448 0,0 -18.8891,7.7448 -18.8891,7.7448 0,0 -18.8882,7.7444 -18.8882,7.7444 0,0 -18.7747,7.7363 -18.7747,7.7363 0,0 -18.8262,7.8505 -18.8262,7.8505 0,0 -18.8262,7.8505 -18.8262,7.8505 0,0 -18.8263,7.8505 -18.8263,7.8505 0,0 -18.82628,7.8506 -18.82628,7.8506 0,0 -18.82538,7.8501 -18.82538,7.8501 0,0 -18.82634,7.8505 -18.82634,7.8505 0,0 -18.82623,7.8506 -18.82623,7.8506 0,0 -18.82622,7.8505 -18.82622,7.8505 0,0 -18.82635,7.8505 -18.82635,7.8505 0,0 -18.91795,7.8613 -18.91795,7.8613 0,0 -18.88427,7.753 -18.88427,7.753 0,0 -18.88431,7.7529 -18.88431,7.7529 0,0 -18.8842,7.753 -18.8842,7.753 0,0 -18.8844,7.753 -18.8844,7.753 0,0 -18.8842,7.75295 -18.8842,7.75295 0,0 -19.0442,7.68352 -19.0442,7.68352 0,0 -18.9584,7.62615 -18.9584,7.62615 0,0 -19.0509,7.64613 -19.0509,7.64613 0,0 -19.0238,7.5121 -19.0238,7.5121 0,0 -19.0238,7.5121 -19.0238,7.5121 0,0 -19.1487,7.50078 -19.1487,7.50078 0,0 -19.1006,7.37529 -19.1006,7.37529 0,0 -19.1004,7.3753 -19.1004,7.3753 0,0 -19.2632,7.32372 -19.2632,7.32372 0,0 -19.1886,7.21461 -19.1886,7.21461 0,0 -19.1878,7.21427 -19.1878,7.21427 0,0 -19.3919,7.11137 -19.3919,7.11137 0,0 -19.2876,7.02846 -19.2876,7.02846 0,0 -19.4267,7.0734 -19.4267,7.0734 0,0 -19.3975,6.81484 -19.3975,6.81484 0,0 -19.396703,6.81454 -19.396703,6.81454 0,0 -19.5295,6.80909 -19.5295,6.80909 0,0 -19.4866,6.63597 -19.4866,6.63597 0,0 -19.6192,6.5501 -19.6192,6.5501 0,0 -19.6631,6.46541 -19.6631,6.46541 0,0 -19.7080999,6.37758 -19.7080999,6.37758 0,0 -19.6819001,6.2202 -19.6819001,6.2202 0,0 -19.8244,6.12959 -19.8244,6.12959 0,0 -19.8743,6.02469 -19.8743,6.02469 0,0 -19.9256,5.91519 -19.9256,5.91519 0,0 -19.900097,5.7192 -19.900097,5.7192 0,0 -20.0542,5.61151 -20.0542,5.61151 0,0 -20.1112,5.47971 -20.1112,5.47971 0,0 -20.1693,5.34086 -20.1693,5.34086 0,0 -20.1351,5.11525 -20.1351,5.11525 0,0 -20.3101,4.96683 -20.3101,4.96683 0,0 -20.3725,4.79765 -20.3725,4.79765 0,0 -20.4357,4.61821 -20.4357,4.61821 0,0 -20.3806,4.38681 -20.3806,4.38681 0,0 -20.5844,4.15308 -20.5844,4.15308 0,0 -20.6507,3.93259 -20.6507,3.93259 0,0 -20.7176,3.69737 -20.7176,3.69737 0,0 -20.784,3.44578 -20.784,3.44578 0,0 -20.8522,3.17659 -20.8522,3.17659 0,0 -20.7754,2.81807 -20.7754,2.81807 0,0 -20.9875,2.50885 -20.9875,2.50885 0,0 -21.046,2.17286 -21.046,2.17286 0,0 -21.0505,1.86934 -21.0505,1.86934 0,0 -21.1499,1.41131 -21.1499,1.41131 0,0 -21.1895,0.99183 -21.1895,0.99183 0,0 -21.219,0.53942 -21.219,0.53942 0,0 -21.2442,0.0472 -21.2442,0.0472 0,0 -21.2564,-0.53236 -21.2564,-0.53236 0,0 -21.1081,-1.13487 -21.1081,-1.13487 0,0 -21.1423,-1.74166 -21.1423,-1.74166 0,0 -21.0519,-2.29325 -21.0519,-2.29325 0,0 -20.9463,-2.81679 -20.9463,-2.81679 0,0 -20.8287,-3.31283 -20.8287,-3.31283 0,0 -20.7002,-3.78214 -20.7002,-3.78214 0,0 -20.5011,-4.21838 -20.5011,-4.21838 0,0 -20.4208,-4.67131 -20.4208,-4.67131 0,0 -20.2736,-5.06678 -20.2736,-5.06678 0,0 -20.1403,-5.4646 -20.1403,-5.4646 0,0 -19.9739,-5.77986 -19.9739,-5.77986 0,0 -19.7253,-6.12512 -19.7253,-6.12512 0,0 -19.6535,-6.48111 -19.6535,-6.48111 0,0 -19.4999,-6.77821 -19.4999,-6.77821 0,0 -19.3475,-7.05986 -19.3475,-7.05986 0,0 -19.1965,-7.32726 -19.1965,-7.32726 0,0 -19.0465,-7.58105 -19.0465,-7.58105 0,0 -18.8999,-7.82326 -18.8999,-7.82326 0,0 -18.7099,-8.04133 -18.7099,-8.04133 0,0 -18.5896,-8.31535 -18.5896,-8.31535 0,0 -18.4488,-8.52143 -18.4488,-8.52143 0,0 -18.3093,-8.71825 -18.3093,-8.71825 0,0 -18.17393,-8.90755 -18.17393,-8.90755 0,0 -18.04,-9.08884 -18.04,-9.08884 0,0 -17.9079,-9.263 -17.9079,-9.263 0,0 -17.7779,-9.43056 -17.7779,-9.43056 0,0 -17.6133,-9.60927 -17.6133,-9.60927 0,0 -17.506,-9.77293 -17.506,-9.77293 0,0 -17.3832,-9.91976 -17.3832,-9.91976 0,0 -17.2621,-10.0618 -17.2621,-10.0618 0,0 -17.1426,-10.19933 -17.1426,-10.19933 0,0 -17.024,-10.3322 -17.024,-10.3322 0,0 -16.9083,-10.46201 -16.9083,-10.46201 0,0 -16.7931,-10.58769 -16.7931,-10.58769 0,0 -16.6773,-10.70918 -16.6773,-10.70918 0,0 -16.5584,-10.83939 -16.5584,-10.83939 0,0 -16.4487,-10.9525 -16.4487,-10.9525 0,0 -16.2918,-11.1103 -16.2918,-11.1103 0,0 -16.2692,-11.1371 -16.2692,-11.1371 0,0 -16.0951,-11.3011 -16.0951,-11.3011 0,0 -16.0517,-11.3544 -16.0517,-11.3544 0,0 -15.8848,-11.5008 -15.8848,-11.5008 0,0 -15.8448,-11.5536 -15.8448,-11.5536 0,0 -15.6695,-11.7002 -15.6695,-11.7002 0,0 -15.6351,-11.7292 -15.6351,-11.7292 0,0 -15.4637,-11.9083 -15.4637,-11.9083 0,0 -15.3999,-11.9403 -15.3999,-11.9403 0,0 -15.2875,-12.0657 -15.2875,-12.0657 0,0 -15.1597,-12.1491 -15.1597,-12.1491 0,0 -15.0757,-12.2213 -15.0757,-12.2213 0,0 -14.9603,-12.3476 -14.9603,-12.3476 0,0 -14.8195,-12.4364 -14.8195,-12.4364 0,0 -14.6588,-12.5546 -14.6588,-12.5546 0,0 -14.6005,-12.6423 -14.6005,-12.6423 0,0 -14.397,-12.748 -14.397,-12.748 0,0 -14.221,-12.8916 -14.221,-12.8916 0,0 14.4176,12.7366 14.4176,12.7366 0,0 14.5875,12.5874 14.5875,12.5874 0,0 14.794,12.4844 14.794,12.4844 0,0 14.8418,12.3881 14.8418,12.3881 0,0 15.0006,12.2682 15.0006,12.2682 0,0 15.1492,12.186 15.1492,12.186 0,0 15.2499,12.0478 15.2499,12.0478 0,0 15.3284,11.9715 15.3284,11.9715 0,0 15.4719,11.9006 15.4719,11.9006 0,0 15.5601,11.7565 15.5601,11.7565 0,0 15.646,11.7412 15.646,11.7412 0,0 15.7852,11.5385 15.7852,11.5385 0,0 15.8119,11.5042 15.8119,11.5042 0,0 16.0214,11.3826 16.0214,11.3826 0,0 16.015,11.2969 16.015,11.2969 0,0 16.2252,11.1811 16.2252,11.1811 0,0 16.2113,11.0887 16.2113,11.0887 0,0 16.4393,10.9616 16.4393,10.9616 0,0 16.4104,10.9003 16.4104,10.9003 0,0 16.5778,10.7503 16.5778,10.7503 0,0 16.6818,10.6339 16.6818,10.6339 0,0 16.8409,10.5292 16.8409,10.5292 0,0 16.9081,10.37758 16.9081,10.37758 0,0 17.0168,10.24846 17.0168,10.24846 0,0 17.1255,10.115 17.1255,10.115 0,0 17.2366,9.97853 17.2366,9.97853 0,0 17.348,9.8372 17.348,9.8372 0,0 17.4604,9.69119 17.4604,9.69119 0,0 17.5739,9.54043 17.5739,9.54043 0,0 17.7598,9.41948 17.7598,9.41948 0,0 17.833,9.19232 17.833,9.19232 0,0 17.952,9.02063 17.952,9.02063 0,0 18.0724,8.84215 18.0724,8.84215 0,0 18.19393,8.65653 18.19393,8.65653 0,0 18.3158,8.46283 18.3158,8.46283 0,0 18.4407,8.26164 18.4407,8.26164 0,0 18.566,8.05118 18.566,8.05118 0,0 18.832,7.83995 18.832,7.83995 0,0 18.8552,7.55304 18.8552,7.55304 0,0 18.9835,7.30666 18.9835,7.30666 0,0 19.1139,7.04885 19.1139,7.04885 0,0 19.2436,6.77773 19.2436,6.77773 0,0 19.3736,6.49258 19.3736,6.49258 0,0 19.5026,6.19265 19.5026,6.19265 0,0 19.8178,5.91303 19.8178,5.91303 0,0 19.7909,5.48718 19.7909,5.48718 0,0 19.8525,5.15059 19.8525,5.15059 0,0 20.0261,4.77221 20.0261,4.77221 0,0 20.141,4.37726 20.141,4.37726 0,0 20.3787,3.96209 20.3787,3.96209 0,0 20.364,3.49095 20.364,3.49095 0,0 20.4551,3.02609 20.4551,3.02609 0,0 20.5335,2.53641 20.5335,2.53641 0,0 20.5984,2.02145 20.5984,2.02145 0,0 20.6467,1.4809 20.6467,1.4809 0,0 20.8505,0.89677 20.8505,0.89677 0,0 20.6909,0.29317 20.6909,0.29317 0,0 20.7342,-0.2701 20.7342,-0.2701 0,0 20.7469,-0.75044 20.7469,-0.75044 0,0 20.7308,-1.19281 20.7308,-1.19281 0,0 20.704,-1.60343 20.704,-1.60343 0,0 20.7164,-2.06418 20.7164,-2.06418 0,0 20.6208,-2.35243 20.6208,-2.35243 0,0 20.5745,-2.68254 20.5745,-2.68254 0,0 20.7301,-3.04056 20.7301,-3.04056 0,0 20.4457,-3.3447 20.4457,-3.3447 0,0 20.3894,-3.60966 20.3894,-3.60966 0,0 20.3346,-3.85783 20.3346,-3.85783 0,0 20.2785,-4.09032 20.2785,-4.09032 0,0 20.2226,-4.30844 20.2226,-4.30844 0,0 20.3111,-4.60489 20.3111,-4.60489 0,0 20.0799,-4.77086 20.0799,-4.77086 0,0 20.0266,-4.94889 20.0266,-4.94889 0,0 19.9736,-5.11706 19.9736,-5.11706 0,0 20.0541,-5.33062 20.0541,-5.33062 0,0 19.8384,-5.48952 19.8384,-5.48952 0,0 19.789,-5.62796 19.789,-5.62796 0,0 19.7403,-5.75962 19.7403,-5.75962 0,0 19.809997,-5.932 19.809997,-5.932 0,0 19.617,-6.06257 19.617,-6.06257 0,0 19.5735,-6.17247 19.5735,-6.17247 0,0 19.5314,-6.27777 19.5314,-6.27777 0,0 19.584,-6.43071 19.584,-6.43071 0,0 19.4199001,-6.52569 19.4199001,-6.52569 0,0 19.3822999,-6.61435 19.3822999,-6.61435 0,0 19.3452,-6.70011 19.3452,-6.70011 0,0 19.3825,-6.84425 19.3825,-6.84425 0,0 19.1834,-6.93175 19.1834,-6.93175 0,0 19.289703,-7.02185 19.289703,-7.02185 0,0 19.2905,-7.02215 19.2905,-7.02215 0,0 19.0209,-7.17158 19.0209,-7.17158 0,0 19.1773,-7.23457 19.1773,-7.23457 0,0 19.0157,-7.21701 19.0157,-7.21701 0,0 19.0747,-7.41931 19.0747,-7.41931 0,0 19.0755,-7.41963 19.0755,-7.41963 0,0 18.9129,-7.43665 18.9129,-7.43665 0,0 18.9851,-7.57936 18.9851,-7.57936 0,0 18.9849,-7.57945 18.9849,-7.57945 0,0 18.825,-7.622 18.825,-7.622 0,0 18.9061,-7.71533 18.9061,-7.71533 0,0 18.9061,-7.71542 18.9061,-7.71542 0,0 18.7545,-7.77677 18.7545,-7.77677 0,0 18.839,-7.8287 18.839,-7.8287 0,0 18.7221,-7.8021 18.7221,-7.8021 0,0 18.7629,-7.9547 18.7629,-7.9547 0,0 18.7628,-7.9547 18.7628,-7.9547 0,0 18.7629,-7.9547 18.7629,-7.9547 0,0 18.7629,-7.9547 18.7629,-7.9547 0,0 18.76296,-7.9547 18.76296,-7.9547 0,0 18.63172,-7.9936 18.63172,-7.9936 0,0 18.70331,-8.0516 18.70331,-8.0516 0,0 18.70342,-8.0516 18.70342,-8.0516 0,0 18.70343,-8.0516 18.70343,-8.0516 0,0 18.70331,-8.0516 18.70331,-8.0516 0,0 18.70259,-8.0514 18.70259,-8.0514 0,0 18.70331,-8.0516 18.70331,-8.0516 0,0 18.70348,-8.0516 18.70348,-8.0516 0,0 18.7033,-8.0517 18.7033,-8.0517 0,0 18.7034,-8.0516 18.7034,-8.0516 0,0 18.8466,-8.0194 18.8466,-8.0194 0,0 18.767,-7.9462 18.767,-7.9462 0,0 18.7678,-7.9466 18.7678,-7.9466 0,0 18.7678,-7.9465 18.7678,-7.9465 0,0 18.9415,-7.9906 18.9415,-7.9906 0,0 18.868,-7.78 18.868,-7.78 0,0 18.8671,-7.7797 18.8671,-7.7797 0,0 19.1311,-7.6779 19.1311,-7.6779 0,0 18.9667,-7.6112 18.9667,-7.6112 0,0 18.2745,-6.8909 18.2745,-6.8909 0,0 18.0553,-6.7978 18.0553,-6.7978 0,0 18.3646,-6.6858 18.3646,-6.6858 0,0 18.6013,-6.5567 18.6013,-6.5567 0,0 18.5683,-6.292 18.5683,-6.292 0,0 18.7189,-6.048 18.7189,-6.048 0,0 18.8925,-5.7498 18.8925,-5.7498 0,0 18.7805,-5.4815 18.7805,-5.4815 0,0 18.70924,-5.4312 18.70924,-5.4312 0,0 18.7092,-5.4312 18.7092,-5.4312 0,0 18.6392,-5.4496 18.6392,-5.4496 0,0 18.6859,-5.4866 18.6859,-5.4866 0,0 18.6859,-5.4866 18.6859,-5.4866 0,0 18.7866,-5.4641 18.7866,-5.4641 0,0 18.7202,-5.4024 18.7202,-5.4024 0,0 18.7209,-5.4027 18.7209,-5.4027 0,0 18.8876,-5.3773 18.8876,-5.3773 0,0 18.7813,-5.2553 18.7813,-5.2553 0,0 18.9627,-5.1682 18.9627,-5.1682 0,0 19.0175,-5.1067 19.0175,-5.1067 0,0 18.9037,-4.9406 18.9037,-4.9406 0,0 19.1417,-4.849 19.1417,-4.849 0,0 19.1936,-4.7729 19.1936,-4.7729 0,0 19.0589,-4.5065 19.0589,-4.5065 0,0 19.328,-4.4493 19.328,-4.4493 0,0 19.1438,-4.2485 19.1438,-4.2485 0,0 19.4617,-4.0861 19.4617,-4.0861 0,0 19.5066,-3.9959 19.5066,-3.9959 0,0 19.3177,-3.6607 19.3177,-3.6607 0,0 19.5508,-3.613 19.5508,-3.613 0,0 19.5458,-3.3625 19.5458,-3.3625 0,0 19.5951,-3.1716 19.5951,-3.1716 0,0 19.6413,-2.9767 19.6413,-2.9767 0,0 19.6849,-2.7788 19.6849,-2.7788 0,0 19.8819,-2.5979 19.8819,-2.5979 0,0 19.7661,-2.361 19.7661,-2.361 0,0 19.8009,-2.1592 19.8009,-2.1592 0,0 19.8312,-1.9571 19.8312,-1.9571 0,0 19.8586,-1.755 19.8586,-1.755 0,0 19.8814,-1.5534 19.8814,-1.5534 0,0 19.9028,-1.3533 19.9028,-1.3533 0,0 19.9201,-1.1547 19.9201,-1.1547 0,0 19.9341,-0.9582 19.9341,-0.9582 0,0 19.944,-0.7641 19.944,-0.7641 0,0 19.9528,-0.5731 19.9528,-0.5731 0,0 19.9575,-0.3851 19.9575,-0.3851 0,0 19.9598,-0.2008 19.9598,-0.2008 0,0 19.8094,-0.015 19.8094,-0.015 0,0 19.9582,0.1751 19.9582,0.1751 0,0 19.9524,0.3504 19.9524,0.3504 0,0 19.9448,0.5212 19.9448,0.5212 0,0 19.934,0.6872 19.934,0.6872 0,0 19.9235,0.8486 19.9235,0.8486 0,0 19.9104,1.005 19.9104,1.005 0,0 19.896,1.1565 19.896,1.1565 0,0 19.746,1.3207 19.746,1.3207 0,0 19.8614,1.4859 19.8614,1.4859 0,0 19.8428,1.625 19.8428,1.625 0,0 19.8233,1.759 19.8233,1.759 0,0 19.8026,1.8876 19.8026,1.8876 0,0 19.659,2.0377 19.659,2.0377 0,0 19.7563,2.1842 19.7563,2.1842 0,0 19.7342,2.3002 19.7342,2.3002 0,0 19.7112,2.4112 19.7112,2.4112 0,0 19.5733,2.5473 19.5733,2.5473 0,0 19.6586,2.6816 19.6586,2.6816 0,0 19.6355,2.7801 19.6355,2.7801 0,0 19.5086,2.8726 19.5086,2.8726 0,0 19.5779,3.032 19.5779,3.032 0,0 19.5759,3.1404 19.5759,3.1404 0,0 19.6748,3.4492 19.6748,3.4492 0,0 19.4339,3.7796 19.4339,3.7796 0,0 19.3458,4.0733 19.3458,4.0733 0,0 19.3761,4.4362 19.3761,4.4362 0,0 19.1282,4.7238 19.1282,4.7238 0,0 19.1429,5.0662 19.1429,5.0662 0,0 18.877,5.3657 18.877,5.3657 0,0 18.8767,5.6944 18.8767,5.6944 0,0 18.5976,5.9961 18.5976,5.9961 0,0 18.5789,6.3159 18.5789,6.3159 0,0 18.2891,6.6103 18.2891,6.6103 0,0 18.2514,6.9265 18.2514,6.9265 0,0 17.9572,7.2066 17.9572,7.2066 0,0 17.8967,7.5221 17.8967,7.5221 0,0 17.6018,7.781 17.6018,7.781 0,0 17.5178,8.0994 17.5178,8.0994 0,0 17.2292,8.3332 17.2292,8.3332 0,0 17.0505,8.6653 17.0505,8.6653 0,0 16.9104,8.9233 16.9104,8.9233 0,0 16.7135,9.1678 16.7135,9.1678 0,0 16.5118,9.409 16.5118,9.409 0,0 16.1357,9.5837 16.1357,9.5837 0,0 16.0478,9.9408 16.0478,9.9408 0,0 15.8373,10.1637 15.8373,10.1637 0,0 15.6233,10.3823 15.6233,10.3823 0,0 15.4063,10.597 15.4063,10.597 0,0 15.1868,10.8074 15.1868,10.8074 0,0 14.842,10.9404 14.842,10.9404 0,0 14.7074,11.2516 14.7074,11.2516 0,0 14.4849,11.4427 14.4849,11.4427 0,0 14.2609,11.6294 14.2609,11.6294 0,0 14.0349,11.8113 14.0349,11.8113 0,0 13.8092,11.9896 13.8092,11.9896 0,0 13.5818,12.1631 13.5818,12.1631 0,0 13.3535,12.3319 13.3535,12.3319 0,0 13.1243,12.4956 13.1243,12.4956 0,0 12.8957,12.6561 12.8957,12.6561 0,0 12.6662,12.8115 12.6662,12.8115 0,0 12.4366,12.9623 12.4366,12.9623 0,0 12.2065,13.10832 12.2065,13.10832 0,0 11.9776,13.25113 11.9776,13.25113 0,0 11.7484,13.38912 11.7484,13.38912 0,0 11.5195,13.52294 11.5195,13.52294 0,0 11.2906,13.65204 11.2906,13.65204 0,0 11.0633,13.77841 11.0633,13.77841 0,0 10.8361,13.90026 10.8361,13.90026 0,0 10.6097,14.01829 10.6097,14.01829 0,0 10.3833,14.13197 10.3833,14.13197 0,0 10.1003,14.30098 10.1003,14.30098 0,0 9.9674,14.38713 9.9674,14.38713 0,0 9.6432,14.43056 9.6432,14.43056 0,0 9.4169,14.63358 9.4169,14.63358 0,0 9.1903,14.72651 9.1903,14.72651 0,0 8.9293,14.83124 8.9293,14.83124 0,0 8.637,14.94527 8.637,14.94527 0,0 8.3159,15.06522 8.3159,15.06522 0,0 7.9693,15.19089 7.9693,15.19089 0,0 7.5148,15.41668 7.5148,15.41668 0,0 0,-0.002 0,-0.002"
       style="fill:#99ccff;fill-opacity:1;stroke:none" />
    <path
       id="path1149"
       d="m -1575.4937,705.26221 c 0,0 14.2027,-6.45123 14.2027,-6.45123 0,0 14.2027,-6.45102 14.2027,-6.45102 0,0 14.2027,-6.45123 14.2027,-6.45123 0,0 14.202,-6.45092 14.202,-6.45092 0,0 14.234,-6.42292 14.234,-6.42292 0,0 14.3359,-6.3511 14.3359,-6.3511 0,0 14.336,-6.35099 14.336,-6.35099 0,0 14.3359,-6.3511 14.3359,-6.3511 0,0 14.3359,-6.3512 14.3359,-6.3512 0,0 14.4091,-6.30176 14.4091,-6.30176 0,0 14.4411,-6.26954 14.4411,-6.26954 0,0 14.4757,-6.25199 14.4757,-6.25199 0,0 14.5153,-6.2124 14.5153,-6.2124 0,0 14.5348,-6.20973 14.5348,-6.20973 0,0 14.5912,-6.15224 14.5912,-6.15224 0,0 14.5912,-6.15208 14.5912,-6.15208 0,0 14.6758,-6.1018 14.6758,-6.1018 0,0 14.6688,-6.08888 14.6688,-6.08888 0,0 14.7443,-6.05071 14.7443,-6.05071 0,0 14.7499,-6.02322 14.7499,-6.02322 0,0 14.8168,-5.99603 14.8168,-5.99603 0,0 14.8328,-5.95428 14.8328,-5.95428 0,0 14.8933,-5.93755 14.8933,-5.93755 0,0 14.9178,-5.88219 14.9178,-5.88219 0,0 14.9733,-5.87466 14.9733,-5.87466 0,0 15.0052,-5.80681 15.0052,-5.80681 0,0 15.059,-5.8078 15.059,-5.8078 0,0 15.0948,-5.72813 15.0948,-5.72813 0,0 15.1483,-5.73598 15.1483,-5.73598 0,0 15.1865,-5.6457 15.1865,-5.6457 0,0 15.2422,-5.65903 15.2422,-5.65903 0,0 15.2797,-5.55966 15.2797,-5.55966 0,0 15.3408,-5.57645 15.3408,-5.57645 0,0 15.3761,-5.47007 15.3761,-5.47007 0,0 15.4441,-5.48813 15.4441,-5.48813 0,0 15.474,-5.37632 15.474,-5.37632 0,0 15.5519,-5.39351 15.5519,-5.39351 0,0 15.5737,-5.2785 15.5737,-5.2785 0,0 15.6647,-5.29214 15.6647,-5.29214 0,0 15.6742,-5.17623 15.6742,-5.17623 0,0 15.7822,-5.18363 15.7822,-5.18363 0,0 15.7779,-5.07001 15.7779,-5.07001 0,0 15.904,-5.06751 15.904,-5.06751 0,0 15.8822,-4.95905 15.8822,-4.95905 0,0 16.0304,-4.94332 16.0304,-4.94332 0,0 15.9878,-4.8434 15.9878,-4.8434 0,0 16.16046,-4.81038 16.16046,-4.81038 0,0 16.0942,-4.72295 16.0942,-4.72295 0,0 16.296,-4.6688 16.296,-4.6688 0,0 16.2016,-4.59752 16.2016,-4.59752 0,0 16.4342,-4.51751 16.4342,-4.51751 0,0 16.4675,-4.49195 16.4675,-4.49195 0,0 16.41795,-4.33127 16.41795,-4.33127 0,0 16.61116,-4.32531 16.61116,-4.32531 0,0 16.52617,-4.19019 16.52617,-4.19019 0,0 16.75862,-4.14823 16.75862,-4.14823 0,0 16.63424,-4.04363 16.63424,-4.04363 0,0 16.90714,-3.95968 16.90714,-3.95968 0,0 16.95047,-3.9172 16.95047,-3.9172 0,0 16.84785,-3.73371 16.84785,-3.73371 0,0 17.10097,-3.7104 17.10097,-3.7104 0,0 16.9527,-3.5702 16.9527,-3.5702 0,0 17.25261,-3.49152 17.25261,-3.49152 0,0 17.30147,-3.43491 17.30147,-3.43491 0,0 17.1563,-3.22579 17.1563,-3.22579 0,0 17.4511,-3.19609 17.4511,-3.19609 0,0 17.2542,-3.04481 17.2542,-3.04481 0,0 17.5968,-2.94403 17.5968,-2.94403 0,0 17.6485,-2.87157 17.6485,-2.87157 0,0 17.4394,-2.66548 17.4394,-2.66548 0,0 17.7886,-2.59891 17.7886,-2.59891 0,0 17.5258,-2.46722 17.5258,-2.46722 0,0 17.9215,-2.31307 17.9215,-2.31307 0,0 17.9699,-2.22357 17.9699,-2.22357 0,0 17.6824,-2.05394 17.6824,-2.05394 0,0 18.0901,-1.91736 18.0901,-1.91736 0,0 18.1357,-1.81846 18.1357,-1.81846 0,0 17.8166,-1.61975 17.8166,-1.61975 0,0 18.2388,-1.49288 18.2388,-1.49288 0,0 18.1773,-1.3882 18.1773,-1.3882 0,0 18.1225,-1.19065 18.1225,-1.19065 0,0 18.1519,-1.0461 18.1519,-1.0461 0,0 18.3963,-0.89619 18.3963,-0.89619 0,0 18.2104,-0.72196 18.2104,-0.72196 0,0 18.2296,-0.57191 18.2296,-0.57191 0,0 18.4754,-0.4148 18.4754,-0.4148 0,0 18.2619,-0.2362 18.2619,-0.2362 0,0 18.2693,-0.0819 18.2693,-0.0819 0,0 18.514,0.0836 18.514,0.0836 0,0 18.2737,0.26212 18.2737,0.26212 0,0 18.2678,0.41925 18.2678,0.41925 0,0 18.5111,0.59334 18.5111,0.59334 0,0 18.2427,0.76792 18.2427,0.76792 0,0 18.2234,0.92622 18.2234,0.92622 0,0 18.4618,1.10761 18.4618,1.10761 0,0 18.1673,1.27555 18.1673,1.27555 0,0 18.1353,1.43338 18.1353,1.43338 0,0 18.367197,1.61949 18.367197,1.61949 0,0 18.0501,1.77949 18.0501,1.77949 0,0 18.0044,1.93506 18.0044,1.93506 0,0 17.9547,2.08967 17.9547,2.08967 0,0 18.1654,2.30649 18.1654,2.30649 0,0 17.833203,2.42578 17.833203,2.42578 0,0 17.7709,2.57604 17.7709,2.57604 0,0 17.9741,2.78708 17.9741,2.78708 0,0 17.6256,2.90065 17.6256,2.90065 0,0 17.5538,3.04544 17.5538,3.04544 0,0 17.7507,3.24487 17.7507,3.24487 0,0 17.3868,3.35551 17.3868,3.35551 0,0 17.3061,3.49361 17.3061,3.49361 0,0 17.2224,3.62943 17.2224,3.62943 0,0 17.4014,3.83323 17.4014,3.83323 0,0 17.0346,3.91766 17.0346,3.91766 0,0 17.0168,4.08205 17.0168,4.08205 0,0 16.6153,4.0697 16.6153,4.0697 0,0 16.9414,4.32831 16.9414,4.32831 0,0 16.8872,4.40547 16.8872,4.40547 0,0 16.3573,4.40676 16.3573,4.40676 0,0 16.6936,4.65202 16.6936,4.65202 0,0 16.6267,4.73471 16.6267,4.73471 0,0 16.0844,4.73418 16.0844,4.73418 0,0 16.4135,4.9797 16.4135,4.9797 0,0 16.3343,5.0653 16.3343,5.0653 0,0 15.7986,5.04798 15.7986,5.04798 0,0 16.104,5.30406 16.104,5.30406 0,0 16.0147,5.38997 16.0147,5.38997 0,0 15.5059,5.34516 15.5059,5.34516 0,0 15.7733,5.61852 15.7733,5.61852 0,0 16.5041,6.46485 16.5041,6.46485 0,0 16.3624,6.56193 16.3624,6.56193 0,0 15.8752,6.52391 15.8752,6.52391 0,0 16.0569,6.78942 16.0569,6.78942 0,0 15.9167,6.87751 15.9167,6.87751 0,0 15.7756,6.96266 15.7756,6.96266 0,0 15.6362,7.04567 15.6362,7.04567 0,0 15.4976,7.12535 15.4976,7.12535 0,0 15.1038,7.11373 15.1038,7.11373 0,0 15.2241,7.29847 15.2241,7.29847 0,0 15.0974,7.36344 15.0974,7.36344 0,0 14.976,7.42465 14.976,7.42465 0,0 14.9211,7.52605 14.9211,7.52605 0,0 14.5554,7.48962 14.5554,7.48962 0,0 14.5555,7.48954 14.5555,7.48954 0,0 14.6476,7.72261 14.6476,7.72261 0,0 14.3739,7.60689 14.3739,7.60689 0,0 14.4734,7.7487 14.4734,7.7487 0,0 14.2381,7.69257 14.2381,7.69257 0,0 14.3194,7.76409 14.3194,7.76409 0,0 14.1521,7.74592 14.1521,7.74592 0,0 14.1785,7.7606 14.1785,7.7606 0,0 14.1287,7.75957 14.1287,7.75957 0,0 14.1293,7.75985 14.1293,7.75985 0,0 14.1287,7.75967 14.1287,7.75967 0,0 14.1292,7.75988 14.1292,7.75988 0,0 14.0812,7.67986 14.0812,7.67986 0,0 14.2164,7.70612 14.2164,7.70612 0,0 14.1199,7.60702 14.1199,7.60702 0,0 14.3469,7.62343 14.3469,7.62343 0,0 14.1776,7.51376 14.1776,7.51376 0,0 14.53089,7.50494 14.53089,7.50494 0,0 14.5316,7.50525 14.5316,7.50525 0,0 14.5129,7.31925 14.5129,7.31925 0,0 14.6741,7.26129 14.6741,7.26129 0,0 14.7866,7.17336 14.7866,7.17336 0,0 14.9071,7.07816 14.9071,7.07816 0,0 15.0369,6.97691 15.0369,6.97691 0,0 15.173,6.86887 15.173,6.86887 0,0 15.3168,6.7547 15.3168,6.7547 0,0 15.4649,6.63404 15.4649,6.63404 0,0 15.6194,6.50806 15.6194,6.50806 0,0 15.9871,6.43133 15.9871,6.43133 0,0 15.9665,6.21393 15.9665,6.21393 0,0 16.1304,6.06857 16.1304,6.06857 0,0 16.2942,5.91847 16.2942,5.91847 0,0 16.459,5.765 16.459,5.765 0,0 16.6218,5.60793 16.6218,5.60793 0,0 16.784,5.44881 16.784,5.44881 0,0 17.1428,5.33453 17.1428,5.33453 0,0 17.13,5.07897 17.13,5.07897 0,0 17.2822,4.91082 17.2822,4.91082 0,0 17.4282,4.74258 17.4282,4.74258 0,0 17.5706,4.57555 17.5706,4.57555 0,0 17.7062,4.40967 17.7062,4.40967 0,0 18.0254,4.24234 18.0254,4.24234 0,0 17.9932,4.01634 17.9932,4.01634 0,0 18.1092,3.85321 18.1092,3.85321 0,0 18.2205,3.69461 18.2205,3.69461 0,0 18.4651,3.54698 18.4651,3.54698 0,0 18.4536,3.30671 18.4536,3.30671 0,0 18.5426,3.15734 18.5426,3.15734 0,0 18.6277,3.01413 18.6277,3.01413 0,0 18.8213,2.847 18.8213,2.847 0,0 18.7575,2.65669 18.7575,2.65669 0,0 18.934,2.43839 18.934,2.43839 0,0 18.9618,2.24202 18.9618,2.24202 0,0 19.0947,2.01447 19.0947,2.01447 0,0 19.1538,1.82766 19.1538,1.82766 0,0 19.1848,1.61222 19.1848,1.61222 0,0 19.268,1.41996 19.268,1.41996 0,0 19.2927,1.22401 19.2927,1.22401 0,0 19.3539,1.02479 19.3539,1.02479 0,0 19.373,0.84647 19.373,0.84647 0,0 19.4129,0.64325 19.4129,0.64325 0,0 19.4304,0.43622 19.4304,0.43622 0,0 19.4487,0.30284 19.4487,0.30284 0,0 19.4485,0.12886 19.4485,0.12886 0,0 19.467,-0.0882 19.467,-0.0882 0,0 19.4732,-0.23421 19.4732,-0.23421 0,0 19.4759,-0.37959 19.4759,-0.37959 0,0 19.4268,-0.55953 19.4268,-0.55953 0,0 19.4545,-0.73907 19.4545,-0.73907 0,0 19.4466,-0.87551 19.4466,-0.87551 0,0 19.4346,-1.01103 19.4346,-1.01103 0,0 19.3436,-1.1836 19.3436,-1.1836 0,0 19.3835,-1.33994 19.3835,-1.33994 0,0 19.3618,-1.46694 19.3618,-1.46694 0,0 19.3397,-1.59324 19.3397,-1.59324 0,0 19.2158,-1.74661 19.2158,-1.74661 0,0 19.2647,-1.89352 19.2647,-1.89352 0,0 19.2333,-2.01161 19.2333,-2.01161 0,0 19.2016,-2.12927 19.2016,-2.12927 0,0 19.0594,-2.25362 19.0594,-2.25362 0,0 19.109,-2.40309 19.109,-2.40309 0,0 19.0713,-2.51358 19.0713,-2.51358 0,0 19.0302,-2.62284 19.0302,-2.62284 0,0 18.989,-2.7319 18.989,-2.7319 0,0 18.8196,-2.8511 18.8196,-2.8511 0,0 18.8822,-2.97658 18.8822,-2.97658 0,0 18.8358,-3.07906 18.8358,-3.07906 0,0 18.7869,-3.18083 18.7869,-3.18083 0,0 18.7379,-3.28199 18.7379,-3.28199 0,0 18.5633,-3.37063 18.5633,-3.37063 0,0 18.6212,-3.50143 18.6212,-3.50143 0,0 18.5678,-3.59725 18.5678,-3.59725 0,0 18.514,-3.69235 18.514,-3.69235 0,0 18.4582,-3.78684 18.4582,-3.78684 0,0 18.4002,-3.88071 18.4002,-3.88071 0,0 18.3422,-3.97406 18.3422,-3.97406 0,0 18.3346,-4.08548 18.3346,-4.08548 0,0 18.0746,-4.17135 18.0746,-4.17135 0,0 18.3065,-4.2329 18.3065,-4.2329 0,0 17.9467,-4.35376 17.9467,-4.35376 0,0 18.176,-4.41767 18.176,-4.41767 0,0 17.8202,-4.52416 17.8202,-4.52416 0,0 18.033,-4.60777 18.033,-4.60777 0,0 17.6966,-4.68451 17.6966,-4.68451 0,0 17.8782,-4.80218 17.8782,-4.80218 0,0 17.576,-4.83532 17.576,-4.83532 0,0 17.7119,-5.00049 17.7119,-5.00049 0,0 17.6496,-5.06768 17.6496,-5.06768 0,0 17.3433,-5.11088 17.3433,-5.11088 0,0 17.4589,-5.27902 17.4589,-5.27902 0,0 17.3662,-5.37269 17.3662,-5.37269 0,0 17.2594,-5.48062 17.2594,-5.48062 0,0 17.1823,-5.65368 17.1823,-5.65368 0,0 17.1077,-5.79968 17.1077,-5.79968 0,0 -17.0164,6.08693 -17.0164,6.08693 0,0 -17.1066,5.94279 -17.1066,5.94279 0,0 -17.1918,5.76992 -17.1918,5.76992 0,0 -17.3123,5.66353 -17.3123,5.66353 0,0 -17.418,5.5708 -17.418,5.5708 0,0 -17.2779,5.40059 -17.2779,5.40059 0,0 -17.6299,5.36079 -17.6299,5.36079 0,0 -17.7076,5.2938 -17.7076,5.2938 0,0 -17.5243,5.12606 -17.5243,5.12606 0,0 -17.8995,5.09682 -17.8995,5.09682 0,0 -17.6523,4.97576 -17.6523,4.97576 0,0 -18.0809,4.90293 -18.0809,4.90293 0,0 -18.1205,4.88394 -18.1205,4.88394 0,0 -17.9176,4.64522 -17.9176,4.64522 0,0 -18.2817,4.71067 -18.2817,4.71067 0,0 -18.0543,4.46332 -18.0543,4.46332 0,0 -18.3345,4.52334 -18.3345,4.52334 0,0 -18.1579,4.3197 -18.1579,4.3197 0,0 -18.4199,4.26717 -18.4199,4.26717 0,0 -18.491,4.1736 -18.491,4.1736 0,0 -18.5612,4.07912 -18.5612,4.07912 0,0 -18.6299,3.98381 -18.6299,3.98381 0,0 -18.6992,3.888 -18.6992,3.888 0,0 -18.7671,3.79114 -18.7671,3.79114 0,0 -18.834,3.69389 -18.834,3.69389 0,0 -18.6523,3.53929 -18.6523,3.53929 0,0 -18.9701,3.46768 -18.9701,3.46768 0,0 -19.0357,3.36426 -19.0357,3.36426 0,0 -19.1,3.25983 -19.1,3.25983 0,0 -19.1634,3.15437 -19.1634,3.15437 0,0 -18.9297,3.00027 -18.9297,3.00027 0,0 -19.2933,2.90117 -19.2933,2.90117 0,0 -19.3537,2.78842 -19.3537,2.78842 0,0 -19.4132,2.67465 -19.4132,2.67465 0,0 -19.4718,2.55995 -19.4718,2.55995 0,0 -19.19,2.37909 -19.19,2.37909 0,0 -19.5898,2.27444 -19.5898,2.27444 0,0 -19.6441,2.15113 -19.6441,2.15113 0,0 -19.6976,2.02648 -19.6976,2.02648 0,0 -19.3623,1.85176 -19.3623,1.85176 0,0 -19.7999,1.71194 -19.7999,1.71194 0,0 -19.848,1.57795 -19.848,1.57795 0,0 -19.8941,1.44233 -19.8941,1.44233 0,0 -19.502,1.26556 -19.502,1.26556 0,0 -19.9758,1.09588 -19.9758,1.09588 0,0 -20.013,0.94978 -20.013,0.94978 0,0 -20.05,0.80216 -20.05,0.80216 0,0 -19.5946,0.61586 -19.5946,0.61586 0,0 -20.1021,0.42134 -20.1021,0.42134 0,0 -20.1264,0.26263 -20.1264,0.26263 0,0 -20.15,0.10156 -20.15,0.10156 0,0 -19.6225,-0.10053 -19.6225,-0.10053 0,0 -20.3032,-0.28131 -20.3032,-0.28131 0,0 -19.8886,-0.48505 -19.8886,-0.48505 0,0 -20.1684,-0.68182 -20.1684,-0.68182 0,0 -19.8623,-0.88392 -19.8623,-0.88392 0,0 -20.146,-1.08634 -20.146,-1.08634 0,0 -19.8094,-1.29839 -19.8094,-1.29839 0,0 -19.7748,-1.48747 -19.7748,-1.48747 0,0 -20.0471,-1.74456 -20.0471,-1.74456 0,0 -19.6781,-1.92255 -19.6781,-1.92255 0,0 -19.9499,-2.18283 -19.9499,-2.18283 0,0 -19.5476,-2.37026 -19.5476,-2.37026 0,0 -19.5519,-2.61576 -19.5519,-2.61576 0,0 -19.5929,-2.76965 -19.5929,-2.76965 0,0 -19.533,-2.92867 -19.533,-2.92867 0,0 -18.8931,-3.07834 -18.8931,-3.07834 0,0 -19.346,-3.33195 -19.346,-3.33195 0,0 -19.2603,-3.50317 -19.2603,-3.50317 0,0 -19.1675,-3.67953 -19.1675,-3.67953 0,0 -18.5058,-3.7892 -18.5058,-3.7892 0,0 -18.9179,-4.0941 -18.9179,-4.0941 0,0 -18.7981,-4.27548 -18.7981,-4.27548 0,0 -18.6688,-4.4585 -18.6688,-4.4585 0,0 -18.5323,-4.64316 -18.5323,-4.64316 0,0 -17.8703,-4.70616 -17.8703,-4.70616 0,0 -18.211,-5.04624 -18.211,-5.04624 0,0 -18.0525,-5.22455 -18.0525,-5.22455 0,0 -17.8867,-5.40039 -17.8867,-5.40039 0,0 -17.7166,-5.57377 -17.7166,-5.57377 0,0 -17.5411,-5.74283 -17.5411,-5.74283 0,0 -17.3618,-5.9074 -17.3618,-5.9074 0,0 -16.7662,-5.91816 -16.7662,-5.91816 0,0 -16.992,-6.24184 -16.992,-6.24184 0,0 -16.8104,-6.38608 -16.8104,-6.38608 0,0 -16.6297,-6.52366 -16.6297,-6.52366 0,0 -16.4504,-6.65374 -16.4504,-6.65374 0,0 -16.2737,-6.77614 -16.2737,-6.77614 0,0 -16.1023,-6.89072 -16.1023,-6.89072 0,0 -15.9354,-6.99712 -15.9354,-6.99712 0,0 -15.7746,-7.09519 -15.7746,-7.09519 0,0 -15.6209,-7.18475 -15.6209,-7.18475 0,0 -15.4743,-7.2655 -15.4743,-7.2655 0,0 -15.13789,-7.24846 -15.13789,-7.24846 0,0 -15.2592,-7.49427 -15.2592,-7.49427 0,0 -14.9719,-7.36367 -14.9719,-7.36367 0,0 -15.1317,-7.60569 -15.1317,-7.60569 0,0 -14.7906,-7.48555 -14.7906,-7.48555 0,0 -14.9262,-7.64087 -14.9262,-7.64087 0,0 -14.6624,-7.5708 -14.6624,-7.5708 0,0 -14.7678,-7.66252 -14.7678,-7.66252 0,0 -14.5762,-7.626 -14.5762,-7.626 0,0 -14.5768,-7.6263 -14.5768,-7.6263 0,0 -14.5769,-7.62631 -14.5769,-7.62631 0,0 -14.5768,-7.6263 -14.5768,-7.6263 0,0 -14.5615,-7.59399 -14.5615,-7.59399 0,0 -14.5987,-7.6115 -14.5987,-7.6115 0,0 -14.5188,-7.50269 -14.5188,-7.50269 0,0 -14.6838,-7.55685 -14.6838,-7.55685 0,0 -14.5162,-7.40645 -14.5162,-7.40645 0,0 -14.8171,-7.46862 -14.8171,-7.46862 0,0 -14.5314,-7.30048 -14.5314,-7.30048 0,0 -14.9954,-7.34756 -14.9954,-7.34756 0,0 -14.9953,-7.34764 -14.9953,-7.34764 0,0 -14.8405,-7.12167 -14.8405,-7.12167 0,0 -15.0129,-7.08144 -15.0129,-7.08144 0,0 -15.0925,-7.00117 -15.0925,-7.00117 0,0 -15.1771,-6.91807 -15.1771,-6.91807 0,0 -15.2647,-6.83172 -15.2647,-6.83172 0,0 -15.6739,-6.854 -15.6739,-6.854 0,0 -15.501,-6.6283 -15.501,-6.6283 0,0 -15.5994,-6.5302 -15.5994,-6.5302 0,0 -15.6981,-6.43061 -15.6981,-6.43061 0,0 -15.7974,-6.32957 -15.7974,-6.32957 0,0 -16.2858,-6.355 -16.2858,-6.355 0,0 -16.0571,-6.08654 -16.0571,-6.08654 0,0 -16.1583,-5.97889 -16.1583,-5.97889 0,0 -16.2576,-5.87146 -16.2576,-5.87146 0,0 -15.1091,-5.52484 -15.1091,-5.52484 0,0 -14.833,-5.24906 -14.833,-5.24906 0,0 -14.908,-5.17181 -14.908,-5.17181 0,0 -15.4122,-5.23509 -15.4122,-5.23509 0,0 -15.1295,-4.94608 -15.1295,-4.94608 0,0 -15.199,-4.87175 -15.199,-4.87175 0,0 -15.7084,-4.92856 -15.7084,-4.92856 0,0 -15.4106,-4.6428 -15.4106,-4.6428 0,0 -15.4729,-4.57342 -15.4729,-4.57342 0,0 -15.9939,-4.60881 -15.9939,-4.60881 0,0 -15.6705,-4.34474 -15.6705,-4.34474 0,0 -15.7256,-4.28253 -15.7256,-4.28253 0,0 -16.2636,-4.27889 -16.2636,-4.27889 0,0 -15.9772,-4.10019 -15.9772,-4.10019 0,0 -15.8886,-3.92064 -15.8886,-3.92064 0,0 -16.2615,-3.84603 -16.2615,-3.84603 0,0 -16.3494,-3.71924 -16.3494,-3.71924 0,0 -16.4346,-3.5902 -16.4346,-3.5902 0,0 -16.239,-3.39886 -16.239,-3.39886 0,0 -16.6121,-3.30423 -16.6121,-3.30423 0,0 -16.6899,-3.1684 -16.6899,-3.1684 0,0 -16.7668,-3.03107 -16.7668,-3.03107 0,0 -16.56341,-2.83243 -16.56341,-2.83243 0,0 -16.92259,-2.72664 -16.92259,-2.72664 0,0 -16.990603,-2.58385 -16.990603,-2.58385 0,0 -16.7728,-2.3996 -16.7728,-2.3996 0,0 -17.1268,-2.26811 -17.1268,-2.26811 0,0 -17.1848,-2.12103 -17.1848,-2.12103 0,0 -17.238797,-1.97289 -17.238797,-1.97289 0,0 -17.0164,-1.7737 -17.0164,-1.7737 0,0 -17.3453,-1.64692 -17.3453,-1.64692 0,0 -17.3878,-1.49631 -17.3878,-1.49631 0,0 -17.157,-1.30903 -17.157,-1.30903 0,0 -17.4693,-1.16628 -17.4693,-1.16628 0,0 -17.499,-1.01473 -17.499,-1.01473 0,0 -17.2643,-0.83982 -17.2643,-0.83982 0,0 -17.5553,-0.68425 -17.5553,-0.68425 0,0 -17.5729,-0.53334 -17.5729,-0.53334 0,0 -17.3355,-0.3719 -17.3355,-0.3719 0,0 -17.6031,-0.2059 -17.6031,-0.2059 0,0 -17.6087,-0.0571 -17.6087,-0.0571 0,0 -17.3719,0.0889 -17.3719,0.0889 0,0 -17.6139,0.2639 -17.6139,0.2639 0,0 -17.6082,0.40904 -17.6082,0.40904 0,0 -17.6009,0.55294 -17.6009,0.55294 0,0 -17.3638,0.70524 -17.3638,0.70524 0,0 -17.5748,0.86112 -17.5748,0.86112 0,0 -17.4436,1.02829 -17.4436,1.02829 0,0 -17.3361,1.09766 -17.3361,1.09766 0,0 -17.7082,1.33451 -17.7082,1.33451 0,0 -17.2836,1.41176 -17.2836,1.41176 0,0 -17.6546,1.55284 -17.6546,1.55284 0,0 -17.2181,1.71522 -17.2181,1.71522 0,0 -17.2076,1.79916 -17.2076,1.79916 0,0 -17.529,1.97465 -17.529,1.97465 0,0 -17.1272,2.08511 -17.1272,2.08511 0,0 -17.1148,2.16172 -17.1148,2.16172 0,0 -17.3809,2.3752 -17.3809,2.3752 0,0 -17.023,2.42939 -17.023,2.42939 0,0 -17.2998,2.56718 -17.2998,2.56718 0,0 -16.9246,2.68496 -16.9246,2.68496 0,0 -16.9097,2.74782 -16.9097,2.74782 0,0 -17.1259,2.93405 -17.1259,2.93405 0,0 -16.8049,2.98491 -16.8049,2.98491 0,0 -17.03484,3.10905 -17.03484,3.10905 0,0 -16.69604,3.20986 -16.69604,3.20986 0,0 -16.68267,3.25988 -16.68267,3.25988 0,0 -16.84398,3.44161 -16.84398,3.44161 0,0 -16.57154,3.46714 -16.57154,3.46714 0,0 -16.74585,3.59941 -16.74585,3.59941 0,0 -16.46021,3.66322 -16.46021,3.66322 0,0 -16.64642,3.75161 -16.64642,3.75161 0,0 -16.34947,3.84851 -16.34947,3.84851 0,0 -16.33851,3.88154 -16.33851,3.88154 0,0 -16.44518,4.0396 -16.44518,4.0396 0,0 -16.22974,4.0513 -16.22974,4.0513 0,0 -16.3434,4.17541 -16.3434,4.17541 0,0 -16.1215,4.21092 -16.1215,4.21092 0,0 -16.2431,4.30641 -16.2431,4.30641 0,0 -16.0145,4.36088 -16.0145,4.36088 0,0 -16.1424,4.43218 -16.1424,4.43218 0,0 -15.91116,4.50213 -15.91116,4.50213 0,0 -15.9087,4.51831 -15.9087,4.51831 0,0 -15.9429,4.66909 -15.9429,4.66909 0,0 -15.8092,4.64716 -15.8092,4.64716 0,0 -15.8447,4.7805 -15.8447,4.7805 0,0 -15.7135,4.76838 -15.7135,4.76838 0,0 -15.7469,4.88718 -15.7469,4.88718 0,0 -15.6203,4.88186 -15.6203,4.88186 0,0 -15.6519,4.98996 -15.6519,4.98996 0,0 -15.5296,4.98804 -15.5296,4.98804 0,0 -15.5575,5.08831 -15.5575,5.08831 0,0 -15.4439,5.08808 -15.4439,5.08808 0,0 -15.4643,5.18226 -15.4643,5.18226 0,0 -15.3606,5.18159 -15.3606,5.18159 0,0 -15.3742,5.2729 -15.3742,5.2729 0,0 -15.2802,5.26899 -15.2802,5.26899 0,0 -15.2852,5.35933 -15.2852,5.35933 0,0 -15.2039,5.35105 -15.2039,5.35105 0,0 -15.1981,5.44222 -15.1981,5.44222 0,0 -15.1318,5.42828 -15.1318,5.42828 0,0 -15.1123,5.52126 -15.1123,5.52126 0,0 -15.113,5.5215 -15.113,5.5215 0,0 -14.9792,5.57633 -14.9792,5.57633 0,0 -15.0291,5.59716 -15.0291,5.59716 0,0 -14.9152,5.64056 -14.9152,5.64056 0,0 -14.9488,5.6701 -14.9488,5.6701 0,0 -14.8536,5.70046 -14.8536,5.70046 0,0 -14.8699,5.73966 -14.8699,5.73966 0,0 -14.7957,5.75689 -14.7957,5.75689 0,0 -14.7931,5.80604 -14.7931,5.80604 0,0 -14.7416,5.81003 -14.7416,5.81003 0,0 -14.7178,5.86923 -14.7178,5.86923 0,0 -14.6895,5.85966 -14.6895,5.85966 0,0 -14.6462,5.93027 -14.6462,5.93027 0,0 -14.6454,5.92996 -14.6454,5.92996 0,0 -14.5699,5.96413 -14.5699,5.96413 0,0 -14.5759,5.98834 -14.5759,5.98834 0,0 -14.5001,6.01296 -14.5001,6.01296 0,0 -14.4748,6.0703 -14.4748,6.0703 0,0 -14.4747,6.07041 -14.4747,6.07041 0,0 -14.4741,6.07 -14.4741,6.07 0,0 -14.4748,6.07031 -14.4748,6.07031 0,0 -14.3488,6.13802 -14.3488,6.13802 0,0 -14.3473,6.17126 -14.3473,6.17126 0,0 -14.3474,6.17146 -14.3474,6.17146 0,0 -14.3466,6.17105 -14.3466,6.17105 0,0 -14.3474,6.17136 -14.3474,6.17136 0,0 0,0 0,0"
       style="fill:#99ccff;fill-opacity:1;stroke:none" />
  </g>
</svg>
